<svg width="145" height="33" viewBox="0 0 145 33" fill="none" xmlns="http://www.w3.org/2000/svg">
<path fill-rule="evenodd" clip-rule="evenodd" d="M12.5635 4.4271C11.8522 3.8551 10.8306 3.8579 10.1226 4.434L0.7004 12.1004C0.257 12.4615 0 12.9989 0 13.5662V26.3657C0 27.4149 0.8619 28.2655 1.925 28.2655H20.8872C21.9504 28.2655 22.8123 27.4149 22.8123 26.3657V13.5728C22.8123 13.0018 22.552 12.461 22.1034 12.1002L12.5635 4.4272V4.4271ZM18.9621 24.466V14.4753L11.3543 8.3563L3.8502 14.4621V24.466H18.962H18.9621Z" fill="url(#paint0_linear_132_8)"/>
<path d="M47.4336 11.6445C46.7383 11.6445 46.1211 11.7812 45.582 12.0547C45.0508 12.3203 44.6016 12.707 44.2344 13.2148C43.875 13.7227 43.6016 14.3359 43.4141 15.0547C43.2266 15.7734 43.1328 16.582 43.1328 17.4805C43.1328 18.6914 43.2812 19.7266 43.5781 20.5859C43.8828 21.4375 44.3516 22.0898 44.9844 22.543C45.6172 22.9883 46.4336 23.2109 47.4336 23.2109C48.1289 23.2109 48.8242 23.1328 49.5195 22.9766C50.2227 22.8203 50.9844 22.5977 51.8047 22.3086V25.3555C51.0469 25.668 50.3008 25.8906 49.5664 26.0234C48.832 26.1641 48.0078 26.2344 47.0938 26.2344C45.3281 26.2344 43.875 25.8711 42.7344 25.1445C41.6016 24.4102 40.7617 23.3867 40.2148 22.0742C39.668 20.7539 39.3945 19.2148 39.3945 17.457C39.3945 16.1602 39.5703 14.9727 39.9219 13.8945C40.2734 12.8164 40.7891 11.8828 41.4688 11.0938C42.1484 10.3047 42.9883 9.69531 43.9883 9.26562C44.9883 8.83594 46.1367 8.62109 47.4336 8.62109C48.2852 8.62109 49.1367 8.73047 49.9883 8.94922C50.8477 9.16016 51.668 9.45312 52.4492 9.82812L51.2773 12.7812C50.6367 12.4766 49.9922 12.2109 49.3438 11.9844C48.6953 11.7578 48.0586 11.6445 47.4336 11.6445ZM66.8459 19.4258C66.8459 20.5195 66.6975 21.4883 66.4006 22.332C66.1116 23.1758 65.6858 23.8906 65.1233 24.4766C64.5686 25.0547 63.8967 25.4922 63.1077 25.7891C62.3264 26.0859 61.4436 26.2344 60.4592 26.2344C59.5373 26.2344 58.6897 26.0859 57.9163 25.7891C57.1506 25.4922 56.4827 25.0547 55.9123 24.4766C55.3498 23.8906 54.9123 23.1758 54.5998 22.332C54.2952 21.4883 54.1428 20.5195 54.1428 19.4258C54.1428 17.9727 54.4006 16.7422 54.9163 15.7344C55.4319 14.7266 56.1663 13.9609 57.1194 13.4375C58.0725 12.9141 59.2092 12.6523 60.5295 12.6523C61.7561 12.6523 62.842 12.9141 63.7873 13.4375C64.7405 13.9609 65.4866 14.7266 66.0256 15.7344C66.5725 16.7422 66.8459 17.9727 66.8459 19.4258ZM57.7873 19.4258C57.7873 20.2852 57.8811 21.0078 58.0686 21.5938C58.2561 22.1797 58.5491 22.6211 58.9475 22.918C59.3459 23.2148 59.8655 23.3633 60.5061 23.3633C61.1389 23.3633 61.6506 23.2148 62.0413 22.918C62.4397 22.6211 62.7288 22.1797 62.9084 21.5938C63.0959 21.0078 63.1897 20.2852 63.1897 19.4258C63.1897 18.5586 63.0959 17.8398 62.9084 17.2695C62.7288 16.6914 62.4397 16.2578 62.0413 15.9688C61.6428 15.6797 61.1233 15.5352 60.4827 15.5352C59.5373 15.5352 58.8498 15.8594 58.4202 16.5078C57.9983 17.1562 57.7873 18.1289 57.7873 19.4258ZM77.0005 12.6523C78.3989 12.6523 79.5239 13.0352 80.3755 13.8008C81.227 14.5586 81.6528 15.7773 81.6528 17.457V26H78.0786V18.3477C78.0786 17.4102 77.9067 16.7031 77.563 16.2266C77.227 15.75 76.6958 15.5117 75.9692 15.5117C74.8755 15.5117 74.1294 15.8828 73.7309 16.625C73.3325 17.3672 73.1333 18.4375 73.1333 19.8359V26H69.5591V12.8984H72.2895L72.77 14.5742H72.9692C73.2505 14.1211 73.5981 13.7539 74.0122 13.4727C74.4341 13.1914 74.8989 12.9844 75.4067 12.8516C75.9223 12.7188 76.4536 12.6523 77.0005 12.6523ZM89.2409 26.2344C87.78 26.2344 86.5886 25.6641 85.6667 24.5234C84.7527 23.375 84.2956 21.6914 84.2956 19.4727C84.2956 17.2305 84.7605 15.5352 85.6902 14.3867C86.6198 13.2305 87.8347 12.6523 89.3347 12.6523C89.9597 12.6523 90.5105 12.7383 90.987 12.9102C91.4636 13.082 91.8737 13.3125 92.2175 13.6016C92.5691 13.8906 92.8659 14.2148 93.1081 14.5742H93.2253C93.1784 14.3242 93.1198 13.957 93.0495 13.4727C92.987 12.9805 92.9558 12.4766 92.9558 11.9609V7.76562H96.5417V26H93.7995L93.1081 24.3008H92.9558C92.7292 24.6602 92.4441 24.9883 92.1003 25.2852C91.7644 25.5742 91.362 25.8047 90.8933 25.9766C90.4245 26.1484 89.8737 26.2344 89.2409 26.2344ZM90.4948 23.3867C91.4714 23.3867 92.1589 23.0977 92.5573 22.5195C92.9636 21.9336 93.1784 21.0547 93.2019 19.8828V19.4961C93.2019 18.2227 93.0066 17.25 92.6159 16.5781C92.2253 15.8984 91.4987 15.5586 90.4362 15.5586C89.6472 15.5586 89.03 15.8984 88.5847 16.5781C88.1394 17.2578 87.9167 18.2383 87.9167 19.5195C87.9167 20.8008 88.1394 21.7656 88.5847 22.4141C89.0378 23.0625 89.6745 23.3867 90.4948 23.3867ZM111.946 19.4258C111.946 20.5195 111.798 21.4883 111.501 22.332C111.212 23.1758 110.786 23.8906 110.224 24.4766C109.669 25.0547 108.997 25.4922 108.208 25.7891C107.427 26.0859 106.544 26.2344 105.56 26.2344C104.638 26.2344 103.79 26.0859 103.017 25.7891C102.251 25.4922 101.583 25.0547 101.013 24.4766C100.45 23.8906 100.013 23.1758 99.7002 22.332C99.3955 21.4883 99.2431 20.5195 99.2431 19.4258C99.2431 17.9727 99.5009 16.7422 100.017 15.7344C100.532 14.7266 101.267 13.9609 102.22 13.4375C103.173 12.9141 104.31 12.6523 105.63 12.6523C106.856 12.6523 107.942 12.9141 108.888 13.4375C109.841 13.9609 110.587 14.7266 111.126 15.7344C111.673 16.7422 111.946 17.9727 111.946 19.4258ZM102.888 19.4258C102.888 20.2852 102.981 21.0078 103.169 21.5938C103.356 22.1797 103.649 22.6211 104.048 22.918C104.446 23.2148 104.966 23.3633 105.606 23.3633C106.239 23.3633 106.751 23.2148 107.142 22.918C107.54 22.6211 107.829 22.1797 108.009 21.5938C108.196 21.0078 108.29 20.2852 108.29 19.4258C108.29 18.5586 108.196 17.8398 108.009 17.2695C107.829 16.6914 107.54 16.2578 107.142 15.9688C106.743 15.6797 106.224 15.5352 105.583 15.5352C104.638 15.5352 103.95 15.8594 103.52 16.5078C103.099 17.1562 102.888 18.1289 102.888 19.4258ZM134.88 8.86719V19.9531C134.88 21.1328 134.619 22.1992 134.095 23.1523C133.58 24.0977 132.794 24.8477 131.74 25.4023C130.693 25.957 129.372 26.2344 127.779 26.2344C125.513 26.2344 123.787 25.6562 122.599 24.5C121.412 23.3438 120.818 21.8125 120.818 19.9062V8.86719H124.439V19.3555C124.439 20.7695 124.728 21.7617 125.306 22.332C125.884 22.9023 126.74 23.1875 127.872 23.1875C128.669 23.1875 129.314 23.0508 129.806 22.7773C130.306 22.5039 130.673 22.082 130.908 21.5117C131.142 20.9414 131.259 20.2148 131.259 19.332V8.86719H134.88ZM138.836 26V8.86719H142.468V26H138.836Z" fill="#222222"/>
<defs>
<linearGradient id="paint0_linear_132_8" x1="4.08505e-07" y1="16.1327" x2="18.2733" y2="25.24" gradientUnits="userSpaceOnUse">
<stop stop-color="#4CD174"/>
<stop offset="1" stop-color="#6DB8F2"/>
</linearGradient>
</defs>
</svg>
