<svg xmlns="http://www.w3.org/2000/svg" width="231" height="231">
  <path fill="#fff" d="M0 0h231v231H0z"/>
  <path d="M0 0h7v7H0zm7 0h7v7H7zm7 0h7v7h-7zm7 0h7v7h-7zm7 0h7v7h-7zm7 0h7v7h-7zm7 0h7v7h-7zm28 0h7v7h-7zm14 0h7v7h-7zm14 0h7v7h-7zm7 0h7v7h-7zm21 0h7v7h-7zm7 0h7v7h-7zm14 0h7v7h-7zm7 0h7v7h-7zm7 0h7v7h-7zm21 0h7v7h-7zm7 0h7v7h-7zm7 0h7v7h-7zm7 0h7v7h-7zm7 0h7v7h-7zm7 0h7v7h-7zm7 0h7v7h-7zM0 7h7v7H0zm42 0h7v7h-7zm14 0h7v7h-7zm14 0h7v7h-7zm21 0h7v7h-7zm21 0h7v7h-7zm14 0h7v7h-7zm21 0h7v7h-7zm35 0h7v7h-7zm42 0h7v7h-7zM0 14h7v7H0zm14 0h7v7h-7zm7 0h7v7h-7zm7 0h7v7h-7zm14 0h7v7h-7zm42 0h7v7h-7zm14 0h7v7h-7zm21 0h7v7h-7zm7 0h7v7h-7zm7 0h7v7h-7zm7 0h7v7h-7zm7 0h7v7h-7zm21 0h7v7h-7zm14 0h7v7h-7zm14 0h7v7h-7zm7 0h7v7h-7zm7 0h7v7h-7zm14 0h7v7h-7zM0 21h7v7H0zm14 0h7v7h-7zm7 0h7v7h-7zm7 0h7v7h-7zm14 0h7v7h-7zm14 0h7v7h-7zm7 0h7v7h-7zm7 0h7v7h-7zm14 0h7v7h-7zm7 0h7v7h-7zm28 0h7v7h-7zm21 0h7v7h-7zm14 0h7v7h-7zm14 0h7v7h-7zm14 0h7v7h-7zm14 0h7v7h-7zm7 0h7v7h-7zm7 0h7v7h-7zm14 0h7v7h-7zM0 28h7v7H0zm14 0h7v7h-7zm7 0h7v7h-7zm7 0h7v7h-7zm14 0h7v7h-7zm21 0h7v7h-7zm49 0h7v7h-7zm7 0h7v7h-7zm7 0h7v7h-7zm7 0h7v7h-7zm14 0h7v7h-7zm7 0h7v7h-7zm7 0h7v7h-7zm21 0h7v7h-7zm14 0h7v7h-7zm7 0h7v7h-7zm7 0h7v7h-7zm14 0h7v7h-7zM0 35h7v7H0zm42 0h7v7h-7zm14 0h7v7h-7zm7 0h7v7h-7zm14 0h7v7h-7zm7 0h7v7h-7zm7 0h7v7h-7zm7 0h7v7h-7zm28 0h7v7h-7zm7 0h7v7h-7zm14 0h7v7h-7zm35 0h7v7h-7zm42 0h7v7h-7zM0 42h7v7H0zm7 0h7v7H7zm7 0h7v7h-7zm7 0h7v7h-7zm7 0h7v7h-7zm7 0h7v7h-7zm7 0h7v7h-7zm14 0h7v7h-7zm14 0h7v7h-7zm14 0h7v7h-7zm14 0h7v7h-7zm14 0h7v7h-7zm14 0h7v7h-7zm14 0h7v7h-7zm14 0h7v7h-7zm14 0h7v7h-7zm14 0h7v7h-7zm7 0h7v7h-7zm7 0h7v7h-7zm7 0h7v7h-7zm7 0h7v7h-7zm7 0h7v7h-7zm7 0h7v7h-7zM63 49h7v7h-7zm7 0h7v7h-7zm7 0h7v7h-7zm14 0h7v7h-7zm14 0h7v7h-7zm7 0h7v7h-7zm21 0h7v7h-7zm7 0h7v7h-7zm7 0h7v7h-7zm14 0h7v7h-7zM0 56h7v7H0zm7 0h7v7H7zm7 0h7v7h-7zm7 0h7v7h-7zm7 0h7v7h-7zm14 0h7v7h-7zm7 0h7v7h-7zm7 0h7v7h-7zm7 0h7v7h-7zm14 0h7v7h-7zm28 0h7v7h-7zm14 0h7v7h-7zm7 0h7v7h-7zm14 0h7v7h-7zm21 0h7v7h-7zm7 0h7v7h-7zm7 0h7v7h-7zm14 0h7v7h-7zm14 0h7v7h-7zm14 0h7v7h-7zM0 63h7v7H0zm21 0h7v7h-7zm7 0h7v7h-7zm42 0h7v7h-7zm14 0h7v7h-7zm42 0h7v7h-7zm14 0h7v7h-7zm7 0h7v7h-7zm14 0h7v7h-7zm7 0h7v7h-7zm7 0h7v7h-7zm7 0h7v7h-7zm28 0h7v7h-7zm7 0h7v7h-7zm7 0h7v7h-7zM14 70h7v7h-7zm7 0h7v7h-7zm7 0h7v7h-7zm7 0h7v7h-7zm7 0h7v7h-7zm14 0h7v7h-7zm14 0h7v7h-7zm35 0h7v7h-7zm7 0h7v7h-7zm7 0h7v7h-7zm28 0h7v7h-7zm42 0h7v7h-7zm14 0h7v7h-7zm14 0h7v7h-7zM0 77h7v7H0zm7 0h7v7H7zm7 0h7v7h-7zm14 0h7v7h-7zm7 0h7v7h-7zm49 0h7v7h-7zm21 0h7v7h-7zm28 0h7v7h-7zm14 0h7v7h-7zm7 0h7v7h-7zm35 0h7v7h-7zm21 0h7v7h-7zM0 84h7v7H0zm14 0h7v7h-7zm14 0h7v7h-7zm7 0h7v7h-7zm7 0h7v7h-7zm14 0h7v7h-7zm7 0h7v7h-7zm7 0h7v7h-7zm14 0h7v7h-7zm14 0h7v7h-7zm7 0h7v7h-7zm35 0h7v7h-7zm14 0h7v7h-7zm21 0h7v7h-7zm21 0h7v7h-7zm7 0h7v7h-7zM7 91h7v7H7zm42 0h7v7h-7zm14 0h7v7h-7zm28 0h7v7h-7zm28 0h7v7h-7zm21 0h7v7h-7zm7 0h7v7h-7zm14 0h7v7h-7zm21 0h7v7h-7zm35 0h7v7h-7zm7 0h7v7h-7zM0 98h7v7H0zm14 0h7v7h-7zm7 0h7v7h-7zm14 0h7v7h-7zm7 0h7v7h-7zm21 0h7v7h-7zm14 0h7v7h-7zm7 0h7v7h-7zm14 0h7v7h-7zm14 0h7v7h-7zm21 0h7v7h-7zm7 0h7v7h-7zm14 0h7v7h-7zm14 0h7v7h-7zm7 0h7v7h-7zm7 0h7v7h-7zm35 0h7v7h-7zm-196 7h7v7h-7zm7 0h7v7h-7zm7 0h7v7h-7zm14 0h7v7h-7zm28 0h7v7h-7zm21 0h7v7h-7zm14 0h7v7h-7zm7 0h7v7h-7zm7 0h7v7h-7zm28 0h7v7h-7zm7 0h7v7h-7zm7 0h7v7h-7zm21 0h7v7h-7zm21 0h7v7h-7zm-182 7h7v7h-7zm14 0h7v7h-7zm28 0h7v7h-7zm7 0h7v7h-7zm7 0h7v7h-7zm7 0h7v7h-7zm14 0h7v7h-7zm14 0h7v7h-7zm7 0h7v7h-7zm49 0h7v7h-7zm14 0h7v7h-7zm7 0h7v7h-7zm21 0h7v7h-7zM0 119h7v7H0zm7 0h7v7H7zm7 0h7v7h-7zm14 0h7v7h-7zm28 0h7v7h-7zm7 0h7v7h-7zm21 0h7v7h-7zm7 0h7v7h-7zm35 0h7v7h-7zm14 0h7v7h-7zm7 0h7v7h-7zm7 0h7v7h-7zm7 0h7v7h-7zm21 0h7v7h-7zm21 0h7v7h-7zm14 0h7v7h-7zm7 0h7v7h-7zM7 126h7v7H7zm14 0h7v7h-7zm14 0h7v7h-7zm7 0h7v7h-7zm14 0h7v7h-7zm7 0h7v7h-7zm7 0h7v7h-7zm14 0h7v7h-7zm14 0h7v7h-7zm7 0h7v7h-7zm7 0h7v7h-7zm7 0h7v7h-7zm28 0h7v7h-7zm7 0h7v7h-7zm21 0h7v7h-7zm14 0h7v7h-7zm7 0h7v7h-7zm7 0h7v7h-7zm14 0h7v7h-7zm-203 7h7v7h-7zm14 0h7v7h-7zm7 0h7v7h-7zm14 0h7v7h-7zm14 0h7v7h-7zm21 0h7v7h-7zm7 0h7v7h-7zm21 0h7v7h-7zm7 0h7v7h-7zm7 0h7v7h-7zm7 0h7v7h-7zm14 0h7v7h-7zm7 0h7v7h-7zm7 0h7v7h-7zm14 0h7v7h-7zm21 0h7v7h-7zm14 0h7v7h-7zM0 140h7v7H0zm7 0h7v7H7zm7 0h7v7h-7zm7 0h7v7h-7zm7 0h7v7h-7zm14 0h7v7h-7zm28 0h7v7h-7zm14 0h7v7h-7zm21 0h7v7h-7zm7 0h7v7h-7zm7 0h7v7h-7zm21 0h7v7h-7zm7 0h7v7h-7zm7 0h7v7h-7zm7 0h7v7h-7zm7 0h7v7h-7zm21 0h7v7h-7zm7 0h7v7h-7zm21 0h7v7h-7zM0 147h7v7H0zm7 0h7v7H7zm21 0h7v7h-7zm7 0h7v7h-7zm14 0h7v7h-7zm14 0h7v7h-7zm14 0h7v7h-7zm28 0h7v7h-7zm7 0h7v7h-7zm21 0h7v7h-7zm7 0h7v7h-7zm21 0h7v7h-7zm7 0h7v7h-7zm14 0h7v7h-7zm7 0h7v7h-7zm14 0h7v7h-7zm14 0h7v7h-7zm7 0h7v7h-7zM0 154h7v7H0zm21 0h7v7h-7zm21 0h7v7h-7zm7 0h7v7h-7zm21 0h7v7h-7zm14 0h7v7h-7zm7 0h7v7h-7zm21 0h7v7h-7zm28 0h7v7h-7zm7 0h7v7h-7zm28 0h7v7h-7zm7 0h7v7h-7zm14 0h7v7h-7zm7 0h7v7h-7zm14 0h7v7h-7zM0 161h7v7H0zm28 0h7v7h-7zm7 0h7v7h-7zm14 0h7v7h-7zm7 0h7v7h-7zm14 0h7v7h-7zm7 0h7v7h-7zm28 0h7v7h-7zm14 0h7v7h-7zm7 0h7v7h-7zm14 0h7v7h-7zm7 0h7v7h-7zm7 0h7v7h-7zm28 0h7v7h-7zm7 0h7v7h-7zm14 0h7v7h-7zm7 0h7v7h-7zM0 168h7v7H0zm42 0h7v7h-7zm7 0h7v7h-7zm7 0h7v7h-7zm70 0h7v7h-7zm7 0h7v7h-7zm7 0h7v7h-7zm7 0h7v7h-7zm7 0h7v7h-7zm7 0h7v7h-7zm7 0h7v7h-7zm7 0h7v7h-7zm7 0h7v7h-7zm7 0h7v7h-7zm7 0h7v7h-7zm28 0h7v7h-7zm-168 7h7v7h-7zm7 0h7v7h-7zm7 0h7v7h-7zm7 0h7v7h-7zm7 0h7v7h-7zm21 0h7v7h-7zm7 0h7v7h-7zm42 0h7v7h-7zm14 0h7v7h-7zm28 0h7v7h-7zm14 0h7v7h-7zm14 0h7v7h-7zM0 182h7v7H0zm7 0h7v7H7zm7 0h7v7h-7zm7 0h7v7h-7zm7 0h7v7h-7zm7 0h7v7h-7zm7 0h7v7h-7zm14 0h7v7h-7zm21 0h7v7h-7zm7 0h7v7h-7zm14 0h7v7h-7zm7 0h7v7h-7zm14 0h7v7h-7zm7 0h7v7h-7zm7 0h7v7h-7zm28 0h7v7h-7zm7 0h7v7h-7zm14 0h7v7h-7zm14 0h7v7h-7zm7 0h7v7h-7zm7 0h7v7h-7zm7 0h7v7h-7zM0 189h7v7H0zm42 0h7v7h-7zm28 0h7v7h-7zm7 0h7v7h-7zm7 0h7v7h-7zm14 0h7v7h-7zm21 0h7v7h-7zm21 0h7v7h-7zm21 0h7v7h-7zm7 0h7v7h-7zm28 0h7v7h-7zm7 0h7v7h-7zm7 0h7v7h-7zm7 0h7v7h-7zM0 196h7v7H0zm14 0h7v7h-7zm7 0h7v7h-7zm7 0h7v7h-7zm14 0h7v7h-7zm14 0h7v7h-7zm14 0h7v7h-7zm7 0h7v7h-7zm7 0h7v7h-7zm14 0h7v7h-7zm7 0h7v7h-7zm7 0h7v7h-7zm7 0h7v7h-7zm7 0h7v7h-7zm21 0h7v7h-7zm7 0h7v7h-7zm14 0h7v7h-7zm7 0h7v7h-7zm7 0h7v7h-7zm7 0h7v7h-7zm7 0h7v7h-7zm7 0h7v7h-7zm14 0h7v7h-7zm7 0h7v7h-7zM0 203h7v7H0zm14 0h7v7h-7zm7 0h7v7h-7zm7 0h7v7h-7zm14 0h7v7h-7zm14 0h7v7h-7zm21 0h7v7h-7zm7 0h7v7h-7zm14 0h7v7h-7zm14 0h7v7h-7zm7 0h7v7h-7zm7 0h7v7h-7zm7 0h7v7h-7zm21 0h7v7h-7zm7 0h7v7h-7zm14 0h7v7h-7zm21 0h7v7h-7zm14 0h7v7h-7zm7 0h7v7h-7zM0 210h7v7H0zm14 0h7v7h-7zm7 0h7v7h-7zm7 0h7v7h-7zm14 0h7v7h-7zm14 0h7v7h-7zm7 0h7v7h-7zm42 0h7v7h-7zm14 0h7v7h-7zm28 0h7v7h-7zm14 0h7v7h-7zm21 0h7v7h-7zm28 0h7v7h-7zM0 217h7v7H0zm42 0h7v7h-7zm14 0h7v7h-7zm21 0h7v7h-7zm21 0h7v7h-7zm7 0h7v7h-7zm7 0h7v7h-7zm14 0h7v7h-7zm21 0h7v7h-7zm42 0h7v7h-7zm14 0h7v7h-7zm7 0h7v7h-7zM0 224h7v7H0zm7 0h7v7H7zm7 0h7v7h-7zm7 0h7v7h-7zm7 0h7v7h-7zm7 0h7v7h-7zm7 0h7v7h-7zm14 0h7v7h-7zm7 0h7v7h-7zm14 0h7v7h-7zm7 0h7v7h-7zm14 0h7v7h-7zm49 0h7v7h-7zm7 0h7v7h-7zm7 0h7v7h-7zm7 0h7v7h-7zm7 0h7v7h-7zm7 0h7v7h-7zm7 0h7v7h-7zm14 0h7v7h-7zm14 0h7v7h-7z"/>
</svg>
