<svg width="32" height="30" viewBox="0 0 32 30" fill="none" xmlns="http://www.w3.org/2000/svg">
<path d="M7.14423 15.5226C6.62738 16.0403 5.74379 15.6735 5.74359 14.9412V13.3683C5.74338 12.4602 5.00875 11.7238 4.10256 11.7238H2.46154C2.00838 11.7238 1.64103 11.3557 1.64103 10.9016V2.46665C1.64103 2.01256 2.00838 1.64444 2.46154 1.64444H15.5897C16.0429 1.64444 16.4103 2.01255 16.4103 2.46665V9.04439H18.0513V2.46665C18.0513 1.10436 16.9492 1.3243e-08 15.5897 0H2.46154C1.10207 2.11891e-07 1.3466e-08 1.10436 0 2.46665V10.9016C0 12.2639 1.10207 13.3683 2.46154 13.3683H4.10256V14.9412C4.10277 17.1386 6.75385 18.2389 8.30449 16.6852L12.0673 12.9146L10.9071 11.7519L7.14423 15.5226Z" fill="url(#paint0_linear_14_10)"/>
<path d="M30.359 11.0999C30.359 10.6458 29.9916 10.2777 29.5385 10.2777H13.1282C12.675 10.2777 12.3077 10.6458 12.3077 11.0999V22.1999C12.3077 22.654 12.675 23.0221 13.1282 23.0221H18.1659C18.8417 23.0221 19.4879 23.3005 19.9527 23.7921L24.02 28.0943C24.5302 28.6334 25.4359 28.2714 25.4359 27.5282V24.6665C25.4359 23.7583 26.1706 23.0221 27.0769 23.0221H29.5385C29.9916 23.0221 30.359 22.654 30.359 22.1999V11.0999ZM32 22.1999C32 23.5622 30.8979 24.6665 29.5385 24.6665H27.0769V27.5282C27.0769 29.7581 24.3589 30.8436 22.8285 29.2249L18.7612 24.9235C18.6063 24.7596 18.3911 24.6665 18.1659 24.6665H13.1282C11.7687 24.6665 10.6667 23.5622 10.6667 22.1999V11.0999C10.6667 9.73764 11.7687 8.63329 13.1282 8.63329H29.5385C30.8979 8.63329 32 9.73764 32 11.0999V22.1999Z" fill="url(#paint1_linear_14_10)"/>
<path d="M17.2308 16.8555C17.2308 17.5366 16.6797 18.0888 16 18.0888C15.3203 18.0888 14.7692 17.5366 14.7692 16.8555C14.7692 16.1743 15.3203 15.6221 16 15.6221C16.6797 15.6221 17.2308 16.1743 17.2308 16.8555Z" fill="url(#paint2_linear_14_10)"/>
<path d="M27.8974 16.8555C27.8974 17.5366 27.3464 18.0888 26.6667 18.0888C25.9869 18.0888 25.4359 17.5366 25.4359 16.8555C25.4359 16.1743 25.9869 15.6221 26.6667 15.6221C27.3464 15.6221 27.8974 16.1743 27.8974 16.8555Z" fill="url(#paint3_linear_14_10)"/>
<path d="M22.5641 16.8555C22.5641 17.5366 22.0131 18.0888 21.3333 18.0888C20.6536 18.0888 20.1026 17.5366 20.1026 16.8555C20.1026 16.1743 20.6536 15.6221 21.3333 15.6221C22.0131 15.6221 22.5641 16.1743 22.5641 16.8555Z" fill="url(#paint4_linear_14_10)"/>
<defs>
<linearGradient id="paint0_linear_14_10" x1="16" y1="1.4166" x2="16" y2="32.5817" gradientUnits="userSpaceOnUse">
<stop offset="0.317308" stop-color="#FFD882"/>
<stop offset="1" stop-color="#FFA898"/>
</linearGradient>
<linearGradient id="paint1_linear_14_10" x1="0.615385" y1="15.5849" x2="32.6138" y2="14.9289" gradientUnits="userSpaceOnUse">
<stop stop-color="#3CE3C7"/>
<stop offset="1" stop-color="#18BC98"/>
</linearGradient>
<linearGradient id="paint2_linear_14_10" x1="0" y1="15" x2="32" y2="15" gradientUnits="userSpaceOnUse">
<stop stop-color="#71E3CA"/>
<stop offset="1" stop-color="#3AD9B6"/>
</linearGradient>
<linearGradient id="paint3_linear_14_10" x1="0" y1="15" x2="32" y2="15" gradientUnits="userSpaceOnUse">
<stop stop-color="#1DD4AC"/>
<stop offset="1" stop-color="#04C99E"/>
</linearGradient>
<linearGradient id="paint4_linear_14_10" x1="20.1026" y1="16.8555" x2="22.5641" y2="16.8555" gradientUnits="userSpaceOnUse">
<stop stop-color="#41EBC6"/>
<stop offset="1" stop-color="#18BC98"/>
</linearGradient>
</defs>
</svg>
