<svg width="311" height="311" viewBox="0 0 311 311" fill="none" xmlns="http://www.w3.org/2000/svg">
<path d="M73.5995 18.6605C63.3167 33.65 75.3735 57.9515 60.1156 69.2248C45.2633 80.1986 27.0176 62.2111 13.0203 71.6572C-7.74398 85.67 -3.95207 149.79 26.4064 189.629C35.5362 201.61 43.1648 206.271 46.5434 219.821C53.7982 248.916 28.3009 266.224 33.153 280.614C44.0783 313.014 212.1 340.202 279.518 242.827C311.005 197.349 315.716 131.678 287.584 81.8007C236.749 -8.32696 96.6721 -14.9731 73.5995 18.6605Z" fill="#F4F7FA"/>
<path d="M168.027 274.384C170.43 273.502 174.88 269.464 175.606 267.933C180.437 257.746 190.722 239.26 187.403 227.812C186.836 225.857 177.562 226.029 175.908 224.492C169.969 223.166 167.826 223.075 162.799 219.041C147.957 207.131 168.081 173.868 135.277 171.233C111.249 169.304 94.0569 181.335 88.5602 145.962C83.0634 110.589 41.0344 53.4012 9.77891 86.046C-8.1588 104.781 19.9914 129.53 14.0939 153.84C8.48974 176.941 21.1706 192.031 46.0512 199.48C70.9318 206.928 61.3273 219.18 59.3991 240.362C57.0827 265.806 94.4866 261.725 111.594 258.368C125.371 255.665 162.274 258.076 168.027 274.384Z" fill="url(#paint0_linear_13_209)"/>
<g opacity="0.5">
<mask id="mask0_13_209" style="mask-type:luminance" maskUnits="userSpaceOnUse" x="3" y="76" width="190" height="203">
<path d="M192.62 222.831C191.145 240.365 190.366 258.268 188.977 275.934C179.418 279.006 168.099 282.387 163.136 270.913C156.237 254.959 125.818 255.313 112.086 258.181C95.0909 261.73 57.6427 265.986 59.804 240.548C61.6033 219.371 71.1089 207.036 46.1806 199.76C21.2521 192.484 8.47354 177.477 13.9166 154.337C19.6446 129.986 -8.66325 105.442 9.14294 86.5748C40.1695 53.7002 82.6098 110.655 88.3196 145.944C94.0293 181.233 111.257 169.276 135.192 170.876C167.87 173.061 148.501 207.293 162.897 218.236C174.182 226.815 180.657 223.249 192.62 222.831Z" fill="white"/>
</mask>
<g mask="url(#mask0_13_209)">
<path d="M181.885 248.307L182.005 247.776C100.244 229.205 38.362 164.137 16.4697 73.7205L15.9403 73.8483C26.3158 116.699 46.4865 155.306 74.2715 185.493C103.482 217.23 140.694 238.951 181.885 248.307Z" fill="#FCFDFE"/>
<path d="M57.7013 251.032C77.2861 239.101 112.726 230.598 136.704 232.079L136.737 231.535C112.665 230.05 77.0834 238.587 57.4182 250.567L57.7013 251.032Z" fill="#FCFDFE"/>
<path d="M165.876 244.477L166.139 244C155.206 237.968 147.742 226.64 143.955 210.332C141.178 198.373 140.407 184.065 141.661 167.804L141.118 167.763C139.86 184.079 140.635 198.443 143.425 210.455C147.248 226.92 154.802 238.367 165.876 244.477Z" fill="#FCFDFE"/>
<path d="M70.4943 181.055L70.7815 180.593C50.7574 168.163 26.0034 169.382 8.76306 172.593L8.86298 173.128C26.0084 169.934 50.6188 168.717 70.4943 181.055Z" fill="#FCFDFE"/>
<path d="M39.7063 136.751L40.226 136.589C32.3167 111.243 41.83 85.0464 48.2045 71.6872L47.7131 71.4526C41.3042 84.8841 31.7416 111.227 39.7063 136.751Z" fill="#FCFDFE"/>
</g>
</g>
<mask id="mask1_13_209" style="mask-type:luminance" maskUnits="userSpaceOnUse" x="51" y="4" width="107" height="277">
<path d="M119.03 280.447C131.461 279.479 143.899 278.228 156.334 276.693C156.521 276.887 162.385 250.412 150.638 235.513C127.37 206.615 145.965 183.381 151.781 169.258C160.903 149.405 158.637 124.363 135.872 127.467C113.729 129.966 113.492 84.7155 119.64 50.2886C124.017 33.6275 109.49 12.0547 93.9154 6.28606C78.0436 -0.0104194 61.1241 9.49707 53.8591 42.8072C43.6807 81.2541 70.5064 106.695 79.6986 126.949C88.7463 146.833 63.5851 160.699 81.8202 179.017C97.1033 195.23 116.924 207.489 108.104 225.938C99.0928 244.158 99.8944 259.613 119.03 280.447Z" fill="white"/>
</mask>
<g mask="url(#mask1_13_209)">
<path d="M119.03 280.447C131.461 279.479 143.899 278.228 156.334 276.693C156.521 276.887 162.385 250.412 150.638 235.513C127.37 206.615 145.965 183.381 151.782 169.258C160.824 149.415 158.31 127.086 137.604 125.342C114.669 122.957 113.105 84.6188 119.64 50.2886C124.017 33.6275 109.49 12.0547 93.9154 6.28606C78.0436 -0.0104194 61.1241 9.49707 53.8591 42.8072C43.6807 81.2541 70.5064 106.695 79.6986 126.949C88.7463 146.833 63.5851 160.699 81.8202 179.017C97.1033 195.23 116.924 207.489 108.104 225.938C99.0929 244.158 99.8945 259.613 119.03 280.447Z" fill="url(#paint1_linear_13_209)"/>
</g>
<mask id="mask2_13_209" style="mask-type:luminance" maskUnits="userSpaceOnUse" x="51" y="4" width="107" height="277">
<path d="M119.03 280.447C131.461 279.479 143.899 278.228 156.334 276.693C156.521 276.887 162.385 250.412 150.638 235.513C127.37 206.615 145.965 183.381 151.781 169.258C160.903 149.405 158.637 124.363 135.872 127.467C113.729 129.966 113.492 84.7155 119.64 50.2886C124.017 33.6275 109.49 12.0547 93.9154 6.28606C78.0436 -0.0104194 61.1241 9.49707 53.8591 42.8072C43.6807 81.2541 70.5064 106.695 79.6986 126.949C88.7463 146.833 63.5851 160.699 81.8202 179.017C97.1033 195.23 116.924 207.489 108.104 225.938C99.0928 244.158 99.8944 259.613 119.03 280.447Z" fill="white"/>
</mask>
<g mask="url(#mask2_13_209)">
<g opacity="0.5">
<path d="M136 283.198C136.02 282.961 128.114 225.863 111.574 169.671C109.382 160.615 106.951 151.461 104.6 142.608C91.5091 93.3085 79.144 46.7428 99.2897 -2.71853L98.6019 -2.99884C78.3625 46.6933 90.7586 93.3756 103.883 142.799C106.232 151.648 108.662 160.798 110.857 169.864C127.486 226.359 135.246 282.817 135.259 283.166L136 283.198Z" fill="white"/>
<path d="M92.7369 96.9409L93.3213 96.4827C80.6479 80.3043 65.5778 57.5106 57.4814 45.2653C50.9289 35.3548 50.8971 35.3557 50.5154 35.3905L50.5473 35.7603L50.3528 36.0687C50.724 36.3914 53.4329 40.4882 56.8621 45.6749C64.9642 57.9289 80.0447 80.7386 92.7369 96.9409Z" fill="white"/>
<path d="M90.2335 75.7022C94.2472 58.5118 102.174 47.5514 108.118 41.384C114.592 34.6659 120.459 31.7741 121.162 31.6972L121.131 31.4107L121.417 31.0413C121.241 30.9048 121.026 30.9437 120.692 31.0624C115.901 32.7657 96.568 45.305 89.5103 75.5331L90.2335 75.7022Z" fill="white"/>
<path d="M120.455 206.333L121.197 206.296C119.437 171.238 145.274 140.408 156.465 128.78C157.066 128.156 157.259 127.953 157.333 127.845L156.717 127.43L157.025 127.637L156.718 127.428C156.664 127.503 156.323 127.856 155.93 128.266C147.859 136.651 140.938 145.573 135.358 154.783C124.64 172.476 119.626 189.82 120.455 206.333Z" fill="white"/>
<path d="M72.2977 160.646L72.2971 160.28L72.156 160.62L71.9276 160.239L72.227 159.911C72.228 159.911 72.2297 159.911 72.2317 159.91C72.7402 159.889 103.646 163.732 116.751 188.544L116.094 188.891C103.121 164.327 72.5931 160.659 72.2977 160.646Z" fill="white"/>
<path d="M134.575 273.86C134.799 266.786 138.148 254.926 152.835 238.598C153.668 237.671 153.668 237.671 153.654 237.478L152.913 237.534L153.283 237.506L152.96 237.33C152.911 237.403 152.62 237.727 152.283 238.101C137.446 254.597 134.06 266.639 133.833 273.837L134.575 273.86Z" fill="white"/>
<path d="M131.623 260.322L132.349 260.164C129.562 247.326 112.626 236.917 102.779 231.855C102.466 231.695 102.265 231.592 102.194 231.549L101.81 232.185C101.887 232.231 102.103 232.343 102.439 232.516C112.17 237.518 128.901 247.782 131.623 260.322Z" fill="white"/>
</g>
</g>
<path d="M311 286.401L16.1495 283.887V291.324C16.1495 293.342 17.4356 295.058 19.1773 295.364L102.552 310.008C103.542 310.182 104.545 310.228 105.544 310.145L307.796 293.449C309.602 293.3 311 291.579 311 289.505V286.401Z" fill="#323232"/>
<path d="M204 274.484L19.1984 288.088C15.8916 288.331 13.2028 285.744 13.2028 282.309V144.693C13.2028 141.258 15.8916 138.473 19.1984 138.473H204C206.724 138.473 208.927 140.991 208.927 144.096V268.499C208.927 271.604 206.724 274.283 204 274.484Z" fill="#2F2F48"/>
<path d="M206.947 274.484L22.1452 288.088C18.8382 288.331 16.1495 285.744 16.1495 282.309V144.693C16.1495 141.258 18.8382 138.474 22.1452 138.474H206.947C209.671 138.474 211.874 140.991 211.874 144.096V268.499C211.874 271.604 209.671 274.283 206.947 274.484Z" fill="url(#paint2_linear_13_209)"/>
<path d="M201.19 265.713L29.0663 277.53C26.3752 277.715 24.1884 275.592 24.1884 272.787V152.304C24.1884 149.5 26.3752 147.217 29.0663 147.205L201.19 146.464C203.437 146.454 205.255 148.516 205.255 151.071V260.809C205.255 263.363 203.437 265.559 201.19 265.713Z" fill="#EFF2F6"/>
<path d="M121.072 142.238C121.072 143.516 120.121 144.556 118.947 144.56C117.771 144.563 116.816 143.528 116.816 142.246C116.816 140.964 117.771 139.925 118.947 139.924C120.121 139.923 121.072 140.959 121.072 142.238Z" fill="white"/>
<path opacity="0.48" d="M22.1445 288.088L206.011 274.552L206.947 274.484C208.197 274.392 209.333 273.774 210.201 272.836C196.97 272.112 188.752 267.417 183.451 262.565C172.805 252.822 174.651 243.213 163.171 236.807C148.851 228.817 137.592 238.942 126.726 228.952C120.138 222.896 123.372 218.38 115.266 209.33C106.288 199.306 100.443 202.675 91.4201 193.653C80.0114 182.246 85.7173 173.371 75.8901 165.181C63.9684 155.245 51.1113 164.441 39.7627 154.912C34.8679 150.803 32.182 144.828 30.7796 138.473H22.1452C18.8382 138.473 16.1495 141.258 16.1495 144.693V282.309C16.1494 285.744 18.8377 288.331 22.1445 288.088Z" fill="white"/>
<path d="M214.312 273.729L16.1495 288.049L102.552 303.224C103.542 303.398 104.545 303.444 105.544 303.361L311 286.401L217.465 273.826C216.419 273.686 215.364 273.653 214.312 273.729Z" fill="url(#paint3_linear_13_209)"/>
<path d="M45.0646 288.172L210.041 276.073L261.1 282.881L97.5445 295.815L45.0646 288.172Z" fill="#373737"/>
<mask id="mask3_13_209" style="mask-type:luminance" maskUnits="userSpaceOnUse" x="24" y="52" width="268" height="226">
<path d="M201.19 265.713L31.8969 277.562C28.9454 277.747 24.1884 275.217 24.1884 272.413V151.929C24.1884 149.125 26.5868 146.843 28.9059 54.6587L223.139 53.4391C271.831 47.7861 311 87.7301 280.466 139.74L276.483 249.479C222.776 262.989 203.654 265.559 201.19 265.713Z" fill="white"/>
</mask>
<g mask="url(#mask3_13_209)">
<path d="M248.046 118.312C249.772 113.114 249.079 110.265 248.046 108.608C246.604 106.296 243.301 104.379 237.206 99.7123C236.807 99.407 236.118 98.8617 236.205 98.5623C236.421 97.8213 239.739 98.2046 242.626 99.7123C246.81 101.897 247.682 102.066 250.169 102.84C254.566 104.207 258.431 103.065 264.305 101.33C266.728 100.614 270.124 99.4021 273.984 97.2863C273.984 97.2863 278.242 95.2646 279.404 97.2863L273.21 100.521C273.21 100.521 278.63 98.095 281.727 99.7123L270.887 104.564C270.887 104.564 279.017 102.138 279.404 103.756C274.12 107.692 269.459 109.036 265.854 109.416C260.305 110.002 256.128 108.425 254.627 110.629C253.415 112.409 254.673 115.586 256.175 118.312H248.046V118.312Z" fill="url(#paint4_linear_13_209)"/>
<path d="M175.264 156.32C180.093 148.763 186.024 144.236 190.318 141.506C191.868 142.22 194.251 143.413 196.969 145.207C204.813 150.385 205.675 154.113 212.332 158.43C215.863 160.72 220.235 163.556 225.849 163.169C232.311 162.724 236.739 158.262 238.58 156.408C251.206 143.689 246.266 119.592 245.723 117.099C250.498 116.964 255.272 116.829 260.047 116.695C262.559 121.295 276.399 150.626 266.241 180.176C251.693 222.496 192.511 222.861 174.618 203.378C163.963 191.776 164.026 173.903 175.264 156.32Z" fill="url(#paint5_linear_13_209)"/>
<path d="M83.4209 282.627C81.8073 280.233 78.9622 275.278 76.7755 268.829C70.8611 251.386 74.0738 235.734 74.8705 231.3C77.5463 216.407 77.9561 188.983 69.0844 134.354C84.9277 130.177 108.753 125.995 137.454 128.766C159.213 130.866 177.172 136.325 190.318 141.506C190.662 166.633 188.713 186.563 186.897 200.009C183.988 221.557 181.155 228.435 180.823 246.859C180.324 274.587 186.389 278.493 181.766 287.092C168.48 311.808 101.949 310.107 83.4209 282.627Z" fill="url(#paint6_linear_13_209)"/>
<path d="M127.848 99.2854C127.06 107.102 126.272 114.919 125.484 122.736C125.27 124.854 123.644 126.514 121.612 126.689C113.568 127.381 105.524 128.074 97.4803 128.766L142.091 143.051L162.541 132.865C156.301 130.846 150.061 128.826 143.822 126.807C142.219 126.288 141.059 124.831 140.863 123.091C140.32 118.264 139.777 113.437 139.235 108.61L127.848 99.2854Z" fill="url(#paint7_linear_13_209)"/>
<path d="M123.494 95.6485C128.411 107.435 140.716 117.189 147.075 114.295C153.434 111.401 152.757 96.7398 147.84 84.9536C142.922 73.1674 133.504 68.6731 127.146 71.5671C120.787 74.4611 118.576 83.8622 123.494 95.6485Z" fill="url(#paint8_linear_13_209)"/>
<path d="M131.763 94.58C131.143 95.0654 128.721 91.5974 127.378 92.2167C126.246 92.739 125.939 96.1435 127.312 98.4784C128.481 100.466 130.037 100.267 130.49 101.818C131.235 104.367 127.985 108.175 126.768 107.726C125.988 107.439 126.636 105.618 125.877 103.539C124.387 99.4514 119.493 99.9219 115.498 96.7956C109.216 91.8792 107.504 79.9072 111.25 75.4253C112.674 73.7218 114.27 73.8368 116.205 71.0938C118.3 68.124 117.385 66.6333 118.997 64.7239C121.732 61.4842 127.735 61.7861 131.529 62.9834C136.302 64.4898 136.648 67.1201 139.843 66.9261C143.626 66.6965 144.171 62.9447 148.683 62.255C148.942 62.2152 153.153 61.6398 156.325 64.5004C160.443 68.2155 159.435 74.6826 159.292 75.5993C158.378 81.4594 153.799 86.7436 148.734 87.9329C147.668 88.1832 147.884 87.9459 137.155 87.6755C133.611 87.5861 131.469 87.5591 130.755 88.8614C129.726 90.7415 132.387 94.0915 131.763 94.58Z" fill="url(#paint9_linear_13_209)"/>
<path opacity="0.3" d="M74.8706 177.783C80.5642 180.481 83.633 183.899 85.3897 187.051C92.0882 199.067 81.7844 210.848 89.1826 225.872C94.2741 236.212 101.023 234.428 104.354 244.094C108.628 256.496 99.3276 264.673 99.8026 277.37C100.042 283.773 102.786 291.77 112.091 300.909C99.8784 297.39 89.2626 291.291 83.4207 282.627C81.8071 280.233 78.962 275.278 76.7752 268.829C70.8609 251.386 74.0736 235.734 74.8703 231.3C76.716 221.028 77.483 204.793 74.8706 177.783Z" fill="url(#paint10_linear_13_209)"/>
<path d="M49.7831 292.645C29.9174 282.614 29.4067 247.089 29.134 228.787C28.9195 214.398 28.0187 153.958 61.467 137.302C67.3046 134.395 72.8612 133.483 76.9229 133.207C80.7728 135.672 90.4011 142.609 93.8249 155.097C95.7638 162.169 95.17 169.041 92.5961 178.336C85.936 202.386 75.9891 206.646 69.8799 222.531C57.4518 254.846 80.1363 283.691 68.1695 293.538C61.9764 298.633 50.803 293.16 49.7831 292.645Z" fill="url(#paint11_linear_13_209)"/>
</g>
<path d="M141.225 112.938C132.581 112.938 129.325 100.552 129.291 100.417C129.209 100.095 129.404 99.7675 129.725 99.6857C130.047 99.6042 130.375 99.7985 130.457 100.12C130.491 100.255 133.996 113.569 143.137 111.514C143.462 111.442 143.783 111.645 143.856 111.969C143.929 112.293 143.725 112.615 143.401 112.688C142.64 112.858 141.915 112.938 141.225 112.938Z" fill="white"/>
<path d="M148.857 110.955C149.094 111.866 147.939 112.955 146.277 113.387C144.616 113.819 143.077 113.431 142.84 112.519C142.603 111.608 143.758 110.519 145.42 110.087C147.081 109.655 148.62 110.044 148.857 110.955Z" fill="white"/>
<path d="M131.615 97.6571C132.261 100.142 131.526 102.484 129.974 102.888C128.422 103.291 126.639 101.604 125.993 99.1188C125.347 96.6337 126.082 94.2919 127.634 93.8882C129.186 93.4846 130.969 95.1719 131.615 97.6571Z" fill="white"/>
<path d="M236.212 128.687L225.823 121.094L225.871 99.6081C225.876 97.2723 224.051 95.2852 221.784 95.1672L172.977 92.6267C170.455 92.4954 168.371 94.3965 168.336 96.8756L167.95 123.958C167.915 126.468 169.957 128.536 172.5 128.575L215.794 129.241L221.68 129.331L235.959 129.551C236.403 129.558 236.579 128.955 236.212 128.687Z" fill="url(#paint12_linear_13_209)"/>
<path d="M189.412 110.216C189.397 111.777 188.116 113.003 186.548 112.953C184.974 112.903 183.708 111.589 183.725 110.019C183.743 108.449 185.035 107.226 186.606 107.285C188.173 107.344 189.427 108.656 189.412 110.216Z" fill="white"/>
<path d="M199.032 110.55C199.019 112.095 197.767 113.31 196.229 113.261C194.687 113.212 193.444 111.911 193.458 110.356C193.472 108.803 194.736 107.591 196.277 107.649C197.812 107.707 199.044 109.005 199.032 110.55Z" fill="white"/>
<path d="M208.461 110.877C208.452 112.407 207.226 113.61 205.719 113.562C204.207 113.514 202.987 112.226 202.997 110.687C203.008 109.149 204.244 107.949 205.755 108.005C207.26 108.062 208.47 109.347 208.461 110.877Z" fill="white"/>
<path d="M294.881 13.22L203.64 10.8811C196.385 10.6952 190.37 16.2327 190.241 23.2573L189.408 68.5094C189.278 75.5897 195.117 81.335 202.415 81.335H294.168C300.951 81.335 306.477 75.8334 306.542 69.0532L306.956 25.7117C307.02 18.9826 301.628 13.393 294.881 13.22Z" fill="url(#paint13_linear_13_209)"/>
<path d="M197.412 59.0206L165.166 79.6231C164.356 80.1404 164.715 81.3349 165.68 81.3349H211.241L197.412 59.0206Z" fill="url(#paint14_linear_13_209)"/>
<path d="M222.284 32.203C223.507 32.203 224.625 32.3835 225.64 32.7442C226.656 33.105 227.523 33.6155 228.245 34.2759C228.967 34.9361 229.529 35.7313 229.933 36.6604C230.336 37.59 230.538 38.6231 230.538 39.7605C230.538 40.7389 230.394 41.6438 230.107 42.4752C229.819 43.307 229.434 44.1018 228.951 44.8599C228.468 45.6181 227.903 46.3519 227.255 47.0611C226.606 47.7703 225.928 48.4918 225.219 49.2256L219.239 55.3338C219.826 55.1625 220.4 55.031 220.963 54.9394C221.525 54.8476 222.064 54.8017 222.577 54.8017H229.382C229.871 54.8017 230.26 54.9394 230.547 55.2145C230.835 55.4897 230.978 55.8537 230.978 56.306V59.0207H212.782V57.5167C212.782 57.2111 212.846 56.8929 212.975 56.5627C213.103 56.2327 213.308 55.9271 213.589 55.6456L221.642 47.5747C222.314 46.89 222.917 46.2355 223.449 45.6119C223.981 44.9883 224.427 44.3709 224.788 43.7593C225.148 43.1478 225.423 42.5273 225.613 41.8975C225.803 41.2678 225.898 40.6043 225.898 39.9071C225.898 39.2715 225.806 38.712 225.622 38.2288C225.439 37.7458 225.176 37.3391 224.834 37.0089C224.491 36.6788 224.084 36.4312 223.614 36.2661C223.143 36.1009 222.614 36.0184 222.027 36.0184C220.939 36.0184 220.043 36.2935 219.34 36.8438C218.636 37.394 218.145 38.1342 217.863 39.0634C217.729 39.5282 217.527 39.8611 217.258 40.0631C216.989 40.2648 216.646 40.3658 216.231 40.3658C216.047 40.3658 215.845 40.3474 215.625 40.3107L213.241 39.8889C213.424 38.6171 213.779 37.5013 214.305 36.5411C214.83 35.5814 215.488 34.7803 216.277 34.1382C217.065 33.4962 217.97 33.0133 218.991 32.6892C220.012 32.3653 221.11 32.203 222.284 32.203Z" fill="white"/>
<path d="M249.798 49.0238H253.137V51.6469C253.137 51.8916 253.057 52.1027 252.898 52.2797C252.739 52.4571 252.506 52.5458 252.201 52.5458H249.798V59.0209H245.836V52.5458H234.646C234.341 52.5458 234.072 52.4512 233.84 52.2614C233.607 52.072 233.46 51.8368 233.399 51.5553L232.941 49.2623L245.506 32.4783H249.798V49.0238ZM245.836 40.3474C245.836 39.9562 245.848 39.5343 245.873 39.0818C245.897 38.6295 245.94 38.1586 246.001 37.6694L237.765 49.0236H245.836V40.3474H245.836Z" fill="white"/>
<path d="M257.795 59.0758C257.685 59.3568 257.544 59.6014 257.373 59.8095C257.202 60.0173 257.006 60.1916 256.786 60.3323C256.566 60.4727 256.334 60.5799 256.089 60.6534C255.844 60.7267 255.606 60.7633 255.374 60.7633H253.466L264.178 33.3588C264.387 32.845 264.686 32.4507 265.078 32.1757C265.469 31.9005 265.94 31.7629 266.49 31.7629H268.416L257.795 59.0758Z" fill="white"/>
<path d="M288.098 32.4967V34.4594C288.098 35.0463 288.033 35.5204 287.905 35.8809C287.777 36.2417 287.651 36.5445 287.529 36.7889L277.495 57.4799C277.287 57.9081 276.994 58.2719 276.615 58.5714C276.236 58.8711 275.722 59.0208 275.074 59.0208H271.791L282.063 38.7515C282.491 37.9201 282.968 37.2047 283.494 36.6055H270.8C270.519 36.6055 270.274 36.5017 270.066 36.2935C269.858 36.0858 269.754 35.8412 269.754 35.56V32.4966H288.098V32.4967Z" fill="white"/>
<defs>
<linearGradient id="paint0_linear_13_209" x1="-8.79153" y1="127.939" x2="375.391" y2="367.076" gradientUnits="userSpaceOnUse">
<stop stop-color="#3CE3C7"/>
<stop offset="1" stop-color="#FB6FBB"/>
</linearGradient>
<linearGradient id="paint1_linear_13_209" x1="93.497" y1="11.7561" x2="123.903" y2="276.878" gradientUnits="userSpaceOnUse">
<stop stop-color="#FFD882"/>
<stop offset="0.9964" stop-color="#F36F56"/>
</linearGradient>
<linearGradient id="paint2_linear_13_209" x1="16.1496" y1="213.289" x2="211.874" y2="213.289" gradientUnits="userSpaceOnUse">
<stop stop-color="#A1A1A1"/>
<stop offset="0.9964" stop-color="#2D2D2D"/>
</linearGradient>
<linearGradient id="paint3_linear_13_209" x1="16.1496" y1="288.545" x2="311" y2="288.545" gradientUnits="userSpaceOnUse">
<stop stop-color="#B2B2B2"/>
<stop offset="0.9964" stop-color="#2F2F2F"/>
</linearGradient>
<linearGradient id="paint4_linear_13_209" x1="265.64" y1="81.2113" x2="226.314" y2="186.829" gradientUnits="userSpaceOnUse">
<stop stop-color="#DAC198"/>
<stop offset="1" stop-color="#603300"/>
</linearGradient>
<linearGradient id="paint5_linear_13_209" x1="222.913" y1="163.456" x2="168.591" y2="278.225" gradientUnits="userSpaceOnUse">
<stop stop-color="#3CE3C7"/>
<stop offset="0.9964" stop-color="#18BC98"/>
</linearGradient>
<linearGradient id="paint6_linear_13_209" x1="153.558" y1="247.944" x2="208.007" y2="362.982" gradientUnits="userSpaceOnUse">
<stop stop-color="#3CE3C7"/>
<stop offset="0.9964" stop-color="#359383"/>
</linearGradient>
<linearGradient id="paint7_linear_13_209" x1="127.662" y1="148.191" x2="134.529" y2="97.3771" gradientUnits="userSpaceOnUse">
<stop stop-color="#DAC198"/>
<stop offset="1" stop-color="#603300"/>
</linearGradient>
<linearGradient id="paint8_linear_13_209" x1="139.91" y1="108.413" x2="131.92" y2="73.5796" gradientUnits="userSpaceOnUse">
<stop stop-color="#DAC198"/>
<stop offset="1" stop-color="#603300"/>
</linearGradient>
<linearGradient id="paint9_linear_13_209" x1="117.496" y1="48.6833" x2="145.35" y2="97.8906" gradientUnits="userSpaceOnUse">
<stop stop-color="#7D7F93"/>
<stop offset="0.9964" stop-color="#13131C"/>
</linearGradient>
<linearGradient id="paint10_linear_13_209" x1="120.192" y1="329.769" x2="10.8678" y2="44.5746" gradientUnits="userSpaceOnUse">
<stop stop-color="#3CE3C7"/>
<stop offset="0.9964" stop-color="#359383"/>
</linearGradient>
<linearGradient id="paint11_linear_13_209" x1="94.3924" y1="277.53" x2="149.349" y2="393.64" gradientUnits="userSpaceOnUse">
<stop stop-color="#3CE3C7"/>
<stop offset="0.9964" stop-color="#359383"/>
</linearGradient>
<linearGradient id="paint12_linear_13_209" x1="211.608" y1="98.1571" x2="158.575" y2="180.207" gradientUnits="userSpaceOnUse">
<stop stop-color="#FFD882"/>
<stop offset="0.9964" stop-color="#F36F56"/>
</linearGradient>
<linearGradient id="paint13_linear_13_209" x1="220.276" y1="1.48798" x2="262.728" y2="70.9865" gradientUnits="userSpaceOnUse">
<stop stop-color="#A7FFF0"/>
<stop offset="1" stop-color="#18BC98"/>
</linearGradient>
<linearGradient id="paint14_linear_13_209" x1="160.365" y1="35.793" x2="204.299" y2="107.717" gradientUnits="userSpaceOnUse">
<stop stop-color="#A7FFF0"/>
<stop offset="1" stop-color="#18BC98"/>
</linearGradient>
</defs>
</svg>
