<svg width="131" height="30" viewBox="0 0 131 30" fill="none" xmlns="http://www.w3.org/2000/svg">
<path d="M7.14423 15.5226C6.62738 16.0403 5.74379 15.6735 5.74359 14.9412V13.3683C5.74338 12.4602 5.00875 11.7238 4.10256 11.7238H2.46154C2.00838 11.7238 1.64103 11.3557 1.64103 10.9016V2.46665C1.64103 2.01256 2.00838 1.64444 2.46154 1.64444H15.5897C16.0429 1.64444 16.4103 2.01255 16.4103 2.46665V9.04439H18.0513V2.46665C18.0513 1.10436 16.9492 1.3243e-08 15.5897 0H2.46154C1.10207 2.11891e-07 1.3466e-08 1.10436 0 2.46665V10.9016C0 12.2639 1.10207 13.3683 2.46154 13.3683H4.10256V14.9412C4.10277 17.1386 6.75385 18.2389 8.30449 16.6852L12.0673 12.9146L10.9071 11.7519L7.14423 15.5226Z" fill="url(#paint0_linear_14_9)"/>
<path d="M30.359 11.0999C30.359 10.6458 29.9916 10.2777 29.5385 10.2777H13.1282C12.675 10.2777 12.3077 10.6458 12.3077 11.0999V22.1999C12.3077 22.654 12.675 23.0221 13.1282 23.0221H18.1659C18.8417 23.0221 19.4879 23.3005 19.9527 23.7921L24.02 28.0943C24.5302 28.6334 25.4359 28.2714 25.4359 27.5282V24.6665C25.4359 23.7583 26.1706 23.0221 27.0769 23.0221H29.5385C29.9916 23.0221 30.359 22.654 30.359 22.1999V11.0999ZM32 22.1999C32 23.5622 30.8979 24.6665 29.5385 24.6665H27.0769V27.5282C27.0769 29.7581 24.3589 30.8436 22.8285 29.2249L18.7612 24.9235C18.6063 24.7596 18.3911 24.6665 18.1659 24.6665H13.1282C11.7687 24.6665 10.6667 23.5622 10.6667 22.1999V11.0999C10.6667 9.73764 11.7687 8.63329 13.1282 8.63329H29.5385C30.8979 8.63329 32 9.73764 32 11.0999V22.1999Z" fill="url(#paint1_linear_14_9)"/>
<path d="M17.2308 16.8555C17.2308 17.5366 16.6797 18.0888 16 18.0888C15.3203 18.0888 14.7692 17.5366 14.7692 16.8555C14.7692 16.1743 15.3203 15.6221 16 15.6221C16.6797 15.6221 17.2308 16.1743 17.2308 16.8555Z" fill="url(#paint2_linear_14_9)"/>
<path d="M27.8974 16.8555C27.8974 17.5366 27.3464 18.0888 26.6667 18.0888C25.9869 18.0888 25.4359 17.5366 25.4359 16.8555C25.4359 16.1743 25.9869 15.6221 26.6667 15.6221C27.3464 15.6221 27.8974 16.1743 27.8974 16.8555Z" fill="url(#paint3_linear_14_9)"/>
<path d="M22.5641 16.8555C22.5641 17.5366 22.0131 18.0888 21.3333 18.0888C20.6536 18.0888 20.1026 17.5366 20.1026 16.8555C20.1026 16.1743 20.6536 15.6221 21.3333 15.6221C22.0131 15.6221 22.5641 16.1743 22.5641 16.8555Z" fill="url(#paint4_linear_14_9)"/>
<path d="M40.74 20.68L42.52 18.86C42.84 19.3 43.2267 19.68 43.68 20C44.1467 20.32 44.6467 20.5667 45.18 20.74C45.7267 20.9 46.2867 20.98 46.86 20.98C47.74 20.98 48.4333 20.8067 48.94 20.46C49.46 20.1 49.72 19.6133 49.72 19C49.72 18.44 49.4733 18 48.98 17.68C48.5 17.36 47.68 17.1067 46.52 16.92C44.7333 16.6533 43.42 16.1867 42.58 15.52C41.7533 14.8533 41.34 13.9467 41.34 12.8C41.34 11.9067 41.5667 11.1333 42.02 10.48C42.4733 9.81333 43.1 9.3 43.9 8.94C44.7133 8.56667 45.64 8.38 46.68 8.38C47.8667 8.38 48.9533 8.6 49.94 9.04C50.9267 9.46667 51.76 10.08 52.44 10.88L50.72 12.68C50.2 12.04 49.6 11.5533 48.92 11.22C48.2533 10.8733 47.5133 10.7 46.7 10.7C45.9 10.7 45.26 10.8667 44.78 11.2C44.3 11.52 44.06 11.9733 44.06 12.56C44.06 13.0667 44.2933 13.46 44.76 13.74C45.2267 14.02 46.0267 14.2533 47.16 14.44C48.9733 14.7333 50.3067 15.24 51.16 15.96C52.0267 16.6667 52.46 17.6333 52.46 18.86C52.46 19.74 52.2267 20.52 51.76 21.2C51.2933 21.8667 50.6333 22.3867 49.78 22.76C48.9267 23.1333 47.9333 23.32 46.8 23.32C45.5733 23.32 44.44 23.0933 43.4 22.64C42.36 22.1867 41.4733 21.5333 40.74 20.68ZM64.057 23H61.437V21.08L61.417 20.52V12.92H64.057V23ZM61.557 18.8L62.077 19.16C62.0904 19.9867 61.9437 20.7133 61.637 21.34C61.3437 21.9533 60.917 22.44 60.357 22.8C59.8104 23.1467 59.1637 23.32 58.417 23.32C57.3237 23.32 56.4504 22.9733 55.797 22.28C55.1437 21.5733 54.817 20.5533 54.817 19.22V12.92H57.457V18.94C57.457 19.6467 57.6104 20.1867 57.917 20.56C58.237 20.92 58.6704 21.1 59.217 21.1C59.6037 21.1 59.957 21 60.277 20.8C60.6104 20.6 60.8904 20.3267 61.117 19.98C61.357 19.6333 61.5037 19.24 61.557 18.8ZM69.4702 26.88H66.8302V12.92H69.4502V16.06H68.8902C68.9702 15.4067 69.1702 14.82 69.4902 14.3C69.8235 13.78 70.2568 13.3667 70.7902 13.06C71.3235 12.7533 71.9368 12.6 72.6302 12.6C73.4968 12.6 74.2835 12.8267 74.9902 13.28C75.6968 13.7333 76.2568 14.3667 76.6702 15.18C77.0968 15.98 77.3102 16.9067 77.3102 17.96C77.3102 19.0133 77.0968 19.9467 76.6702 20.76C76.2435 21.56 75.6702 22.1867 74.9502 22.64C74.2435 23.0933 73.4568 23.32 72.5902 23.32C71.7768 23.32 71.0768 23.1333 70.4902 22.76C69.9168 22.3867 69.4768 21.8867 69.1702 21.26C68.8768 20.62 68.7435 19.92 68.7702 19.16L69.3502 18.8C69.4168 19.2533 69.5635 19.6533 69.7902 20C70.0302 20.3467 70.3368 20.62 70.7102 20.82C71.0835 21.0067 71.4902 21.1 71.9302 21.1C72.4635 21.1 72.9235 20.9667 73.3102 20.7C73.7102 20.42 74.0168 20.0467 74.2302 19.58C74.4568 19.1133 74.5702 18.5733 74.5702 17.96C74.5702 17.36 74.4635 16.82 74.2502 16.34C74.0502 15.86 73.7635 15.4867 73.3902 15.22C73.0168 14.9533 72.5702 14.82 72.0502 14.82C71.5435 14.82 71.0968 14.9533 70.7102 15.22C70.3235 15.4867 70.0168 15.86 69.7902 16.34C69.5768 16.82 69.4702 17.38 69.4702 18.02V26.88ZM82.2631 26.88H79.6231V12.92H82.2431V16.06H81.6831C81.7631 15.4067 81.9631 14.82 82.2831 14.3C82.6165 13.78 83.0498 13.3667 83.5831 13.06C84.1165 12.7533 84.7298 12.6 85.4231 12.6C86.2898 12.6 87.0765 12.8267 87.7831 13.28C88.4898 13.7333 89.0498 14.3667 89.4631 15.18C89.8898 15.98 90.1031 16.9067 90.1031 17.96C90.1031 19.0133 89.8898 19.9467 89.4631 20.76C89.0365 21.56 88.4631 22.1867 87.7431 22.64C87.0365 23.0933 86.2498 23.32 85.3831 23.32C84.5698 23.32 83.8698 23.1333 83.2831 22.76C82.7098 22.3867 82.2698 21.8867 81.9631 21.26C81.6698 20.62 81.5365 19.92 81.5631 19.16L82.1431 18.8C82.2098 19.2533 82.3565 19.6533 82.5831 20C82.8231 20.3467 83.1298 20.62 83.5031 20.82C83.8765 21.0067 84.2831 21.1 84.7231 21.1C85.2565 21.1 85.7165 20.9667 86.1031 20.7C86.5031 20.42 86.8098 20.0467 87.0231 19.58C87.2498 19.1133 87.3631 18.5733 87.3631 17.96C87.3631 17.36 87.2565 16.82 87.0431 16.34C86.8431 15.86 86.5565 15.4867 86.1831 15.22C85.8098 14.9533 85.3631 14.82 84.8431 14.82C84.3365 14.82 83.8898 14.9533 83.5031 15.22C83.1165 15.4867 82.8098 15.86 82.5831 16.34C82.3698 16.82 82.2631 17.38 82.2631 18.02V26.88ZM97.1561 23.32C96.1294 23.32 95.2161 23.0933 94.4161 22.64C93.6294 22.1733 93.0094 21.54 92.5561 20.74C92.1161 19.9267 91.8961 19 91.8961 17.96C91.8961 16.92 92.1161 16 92.5561 15.2C93.0094 14.3867 93.6294 13.7533 94.4161 13.3C95.2161 12.8333 96.1294 12.6 97.1561 12.6C98.2094 12.6 99.1294 12.8333 99.9161 13.3C100.716 13.7533 101.336 14.3867 101.776 15.2C102.229 16 102.456 16.92 102.456 17.96C102.456 19 102.229 19.9267 101.776 20.74C101.336 21.54 100.716 22.1733 99.9161 22.64C99.1294 23.0933 98.2094 23.32 97.1561 23.32ZM97.1561 21.1C97.6761 21.1 98.1228 20.9667 98.4961 20.7C98.8828 20.4333 99.1828 20.0667 99.3961 19.6C99.6094 19.12 99.7161 18.5733 99.7161 17.96C99.7161 17.3467 99.6094 16.8067 99.3961 16.34C99.1828 15.8733 98.8828 15.5067 98.4961 15.24C98.1228 14.9733 97.6761 14.84 97.1561 14.84C96.6628 14.84 96.2228 14.9733 95.8361 15.24C95.4628 15.5067 95.1694 15.8733 94.9561 16.34C94.7428 16.8067 94.6361 17.3467 94.6361 17.96C94.6361 18.5733 94.7428 19.12 94.9561 19.6C95.1694 20.0667 95.4628 20.4333 95.8361 20.7C96.2228 20.9667 96.6628 21.1 97.1561 21.1ZM110.899 12.76V15.2H110.359C109.759 15.2 109.239 15.3267 108.799 15.58C108.359 15.82 108.019 16.2 107.779 16.72C107.539 17.2267 107.419 17.8933 107.419 18.72V23H104.779V12.92H107.399V16.2H107.079C107.186 15.2933 107.419 14.5933 107.779 14.1C108.153 13.5933 108.579 13.2467 109.059 13.06C109.553 12.86 110.026 12.76 110.479 12.76H110.899ZM118.687 23H116.307C115.414 23 114.747 22.7733 114.307 22.32C113.867 21.8533 113.647 21.16 113.647 20.24V10.28H116.287V19.78C116.287 20.14 116.361 20.4067 116.507 20.58C116.654 20.74 116.894 20.82 117.227 20.82H118.687V23ZM118.587 15.08H112.047V12.92H118.587V15.08ZM129.394 23H127.074V20.96L126.954 20.66V16.88C126.954 16.1733 126.747 15.6267 126.334 15.24C125.92 14.8533 125.34 14.66 124.594 14.66C123.62 14.66 122.727 15.0467 121.914 15.82L120.534 14.22C121.747 13.14 123.18 12.6 124.834 12.6C125.767 12.6 126.574 12.7733 127.254 13.12C127.934 13.4667 128.46 13.9533 128.834 14.58C129.207 15.2067 129.394 15.9533 129.394 16.82V23ZM123.894 23.32C123.147 23.32 122.5 23.1867 121.954 22.92C121.407 22.64 120.98 22.2533 120.674 21.76C120.367 21.2667 120.214 20.6933 120.214 20.04C120.214 19 120.62 18.1933 121.434 17.62C122.26 17.0333 123.394 16.74 124.834 16.74H127.134V18.42H125.014C124.334 18.42 123.8 18.5533 123.414 18.82C123.027 19.0867 122.834 19.46 122.834 19.94C122.834 20.3533 122.987 20.6933 123.294 20.96C123.614 21.2267 124.02 21.36 124.514 21.36C124.994 21.36 125.427 21.2533 125.814 21.04C126.2 20.8133 126.514 20.5133 126.754 20.14C126.994 19.7533 127.134 19.3133 127.174 18.82L127.854 19.16C127.854 19.9867 127.687 20.7133 127.354 21.34C127.02 21.9533 126.554 22.44 125.954 22.8C125.367 23.1467 124.68 23.32 123.894 23.32Z" fill="#222222"/>
<defs>
<linearGradient id="paint0_linear_14_9" x1="16" y1="1.4166" x2="16" y2="32.5817" gradientUnits="userSpaceOnUse">
<stop offset="0.317308" stop-color="#FFD882"/>
<stop offset="1" stop-color="#FFA898"/>
</linearGradient>
<linearGradient id="paint1_linear_14_9" x1="0.615385" y1="15.5849" x2="32.6138" y2="14.9289" gradientUnits="userSpaceOnUse">
<stop stop-color="#3CE3C7"/>
<stop offset="1" stop-color="#18BC98"/>
</linearGradient>
<linearGradient id="paint2_linear_14_9" x1="0" y1="15" x2="32" y2="15" gradientUnits="userSpaceOnUse">
<stop stop-color="#71E3CA"/>
<stop offset="1" stop-color="#3AD9B6"/>
</linearGradient>
<linearGradient id="paint3_linear_14_9" x1="0" y1="15" x2="32" y2="15" gradientUnits="userSpaceOnUse">
<stop stop-color="#1DD4AC"/>
<stop offset="1" stop-color="#04C99E"/>
</linearGradient>
<linearGradient id="paint4_linear_14_9" x1="20.1026" y1="16.8555" x2="22.5641" y2="16.8555" gradientUnits="userSpaceOnUse">
<stop stop-color="#41EBC6"/>
<stop offset="1" stop-color="#18BC98"/>
</linearGradient>
</defs>
</svg>
