<?xml version="1.0" encoding="UTF-8" standalone="no"?>
<!DOCTYPE svg PUBLIC "-//W3C//DTD SVG 1.1//EN" "http://www.w3.org/Graphics/SVG/1.1/DTD/svg11.dtd">
<svg style="fill-rule:evenodd;clip-rule:evenodd;stroke-linecap:round;stroke-linejoin:round;"
     xmlns="http://www.w3.org/2000/svg" xml:space="preserve" version="1.1" viewBox="56 36 500 500">
<g opacity="1" fill="#676a6c">
<path d="M118.681+157.75C106.581+159.75+93.0805+165.35+84.6805+171.85C65.3805+186.85+59.2805+215.55+70.4805+239.15C75.5805+250.15+91.1805+263.75+106.981+271.05C109.781+272.45+112.181+273.85+112.181+274.35C112.181+274.85+109.181+276.65+105.481+278.35C81.7805+289.35+65.9805+304.55+59.9805+321.95C57.9805+327.75+57.6805+330.55+57.6805+342.65C57.7805+354.35+58.0805+357.75+59.9805+363.55C67.5805+387.15+84.7805+400.25+113.981+404.65C130.481+407.15+149.481+406.05+163.181+401.75C193.481+392.25+210.681+368.25+208.881+337.75C207.281+310.35+194.981+295.15+160.781+278.35L151.881+273.95L154.781+272.05C156.381+271.05+157.981+270.15+158.381+270.15C158.781+270.15+162.381+268.25+166.381+265.85C189.381+252.25+199.381+238.25+200.881+217.65C202.781+189.75+185.881+167.45+156.681+159.65C150.681+158.05+124.981+156.75+118.681+157.75ZM150.681+173.05C172.881+178.85+185.081+193.35+185.181+214.25C185.181+235.75+171.981+251.65+143.781+264.05L134.181+268.25L124.981+264.15C105.681+255.45+95.8805+248.55+88.2805+238.25C82.7805+230.85+80.9805+224.85+80.9805+214.15C81.0805+201.15+83.6805+194.55+92.0805+186.05C102.781+175.35+113.481+171.45+132.181+171.25C140.381+171.25+145.681+171.75+150.681+173.05ZM133.781+282.75C135.981+283.55+138.981+284.85+140.581+285.45C148.481+288.65+164.381+296.75+170.381+300.75C186.681+311.55+194.681+328.25+192.681+346.85C190.281+369.15+177.081+382.95+151.681+389.75C143.781+391.85+121.081+391.85+112.681+389.85C100.381+386.85+86.1805+379.55+87.7805+376.95C88.1805+376.35+88.0805+376.15+87.4805+376.45C86.9805+376.85+85.3805+375.85+83.9805+374.35C71.6805+361.05+69.6805+336.55+79.4805+317.35C86.1805+304.05+97.4805+295.45+125.181+282.75C129.481+280.85+129.181+280.85+133.781+282.75Z"/>
    <path d="M427.181+158.25C411.281+161.15+396.981+166.45+386.281+173.35C377.681+178.95+364.781+191.85+359.081+200.65C350.081+214.55+343.981+230.25+340.581+248.65C337.981+262.75+337.981+300.55+340.581+313.65C344.581+334.05+349.581+347.55+357.981+360.55C363.981+369.95+375.981+382.55+384.181+388.15C400.981+399.55+417.181+404.35+444.081+405.75L457.281+406.45L462.581+412.55C465.481+415.95+475.781+427.95+485.581+439.35L503.281+460.15L515.781+460.15C522.581+460.15+528.181+459.85+528.181+459.35C528.081+458.35+520.681+450.35+484.281+412.85C476.181+404.45+475.781+403.85+477.681+402.55C478.681+401.75+480.381+401.15+481.281+401.15C484.581+401.15+498.781+394.55+506.381+389.35C535.881+369.45+551.881+334.75+553.781+286.65C554.881+257.85+550.081+232.95+539.381+211.65C524.181+181.35+500.381+164.35+464.781+158.15C457.781+156.95+433.681+156.95+427.181+158.25ZM471.681+175.45C492.181+180.35+509.781+193.35+520.581+211.85C531.281+230.15+536.181+251.85+536.181+281.85C536.181+322.25+526.381+350.65+505.681+369.95C489.881+384.75+473.281+390.25+444.181+390.45C430.781+390.55+427.481+390.25+420.181+388.25C411.181+385.75+400.481+380.85+393.481+375.95C381.181+367.55+369.081+350.55+363.381+333.65C361.581+328.35+360.981+325.85+358.681+316.15C357.381+310.55+355.181+289.15+355.181+282.15C355.181+275.05+357.481+252.45+358.681+247.15C360.981+237.35+361.581+235.15+362.781+231.45C366.981+218.55+376.381+202.95+384.981+194.95C395.181+185.45+410.481+177.45+422.681+175.25C425.981+174.65+429.781+173.95+431.181+173.75C436.281+172.85+465.881+174.15+471.681+175.45Z"
          opacity="1"/>
    <path d="M265.381+281.85L265.681+402.65L273.181+402.65L280.681+402.65L280.981+281.85L281.181+161.15L273.181+161.15L265.181+161.15L265.381+281.85Z"/>
</g>
</svg>
