<svg width="256" height="256" viewBox="0 0 256 256" fill="none" xmlns="http://www.w3.org/2000/svg">
<rect width="256" height="256" rx="128" fill="#FF9500"/>
<path d="M165.5 124.623C165.5 130.775 165.036 136.879 164.108 142.934C163.229 148.988 161.667 154.701 159.421 160.072C157.175 165.395 154.025 170.131 149.973 174.281C145.92 178.383 140.769 181.605 134.519 183.949C128.269 186.293 120.7 187.465 111.813 187.465C109.714 187.465 107.248 187.367 104.416 187.172C101.584 187.025 99.2402 186.781 97.3848 186.439V168.275C99.3379 168.764 101.413 169.154 103.61 169.447C105.808 169.691 108.029 169.813 110.275 169.813C119.211 169.813 126.096 168.397 130.93 165.565C135.812 162.733 139.23 158.803 141.184 153.773C143.186 148.744 144.333 142.934 144.626 136.342H143.747C142.331 138.686 140.646 140.81 138.693 142.714C136.789 144.569 134.348 146.059 131.369 147.182C128.391 148.256 124.606 148.793 120.017 148.793C113.913 148.793 108.591 147.475 104.05 144.838C99.5576 142.152 96.0664 138.295 93.5762 133.266C91.1348 128.188 89.9141 122.06 89.9141 114.882C89.9141 107.118 91.3789 100.478 94.3086 94.96C97.2871 89.3936 101.511 85.1211 106.979 82.1426C112.448 79.1641 118.894 77.6748 126.315 77.6748C131.784 77.6748 136.887 78.627 141.623 80.5312C146.359 82.3867 150.51 85.2432 154.074 89.1006C157.688 92.958 160.495 97.8408 162.497 103.749C164.499 109.657 165.5 116.615 165.5 124.623ZM126.755 95.8389C122.36 95.8389 118.771 97.3525 115.988 100.38C113.205 103.407 111.813 108.144 111.813 114.589C111.813 119.765 113.01 123.866 115.402 126.894C117.795 129.921 121.433 131.435 126.315 131.435C129.685 131.435 132.614 130.702 135.104 129.237C137.595 127.724 139.523 125.844 140.891 123.598C142.307 121.303 143.015 118.959 143.015 116.566C143.015 114.076 142.673 111.61 141.989 109.169C141.306 106.728 140.28 104.506 138.913 102.504C137.546 100.502 135.837 98.8906 133.786 97.6699C131.784 96.4492 129.44 95.8389 126.755 95.8389Z" fill="white"/>
</svg>
