<svg width="256" height="256" viewBox="0 0 256 256" fill="none" xmlns="http://www.w3.org/2000/svg">
<rect width="256" height="256" rx="128" fill="#FF9500"/>
<path d="M165.939 186H91.0859V170.253L117.966 143.08C123.386 137.514 127.731 132.875 131.003 129.164C134.323 125.404 136.716 121.986 138.181 118.91C139.694 115.834 140.451 112.538 140.451 109.022C140.451 104.774 139.255 101.601 136.862 99.501C134.519 97.3525 131.369 96.2783 127.414 96.2783C123.264 96.2783 119.235 97.2305 115.329 99.1348C111.423 101.039 107.346 103.749 103.098 107.265L90.793 92.6895C93.8691 90.0527 97.1162 87.5625 100.534 85.2188C104.001 82.875 108.005 80.9951 112.546 79.5791C117.136 78.1143 122.629 77.3818 129.025 77.3818C136.057 77.3818 142.087 78.6514 147.116 81.1904C152.194 83.7295 156.101 87.1963 158.835 91.5908C161.569 95.9365 162.937 100.868 162.937 106.386C162.937 112.294 161.765 117.689 159.421 122.572C157.077 127.455 153.659 132.289 149.167 137.074C144.724 141.859 139.353 147.157 133.054 152.968L119.284 165.932V166.957H165.939V186Z" fill="white"/>
</svg>
