<svg width="256" height="256" viewBox="0 0 256 256" fill="none" xmlns="http://www.w3.org/2000/svg">
<rect width="256" height="256" rx="128" fill="#FF9500"/>
<path d="M161.765 102.87C161.765 107.802 160.739 112.074 158.688 115.688C156.638 119.301 153.854 122.255 150.339 124.55C146.872 126.845 142.966 128.529 138.62 129.604V130.043C147.214 131.117 153.732 133.754 158.176 137.953C162.668 142.152 164.914 147.768 164.914 154.799C164.914 161.049 163.376 166.64 160.3 171.571C157.272 176.503 152.585 180.385 146.237 183.217C139.89 186.049 131.711 187.465 121.701 187.465C115.793 187.465 110.275 186.977 105.148 186C100.07 185.072 95.2852 183.632 90.793 181.679V162.416C95.3828 164.76 100.192 166.542 105.222 167.763C110.251 168.935 114.938 169.521 119.284 169.521C127.39 169.521 133.054 168.129 136.276 165.346C139.548 162.514 141.184 158.559 141.184 153.48C141.184 150.502 140.427 147.987 138.913 145.937C137.399 143.886 134.763 142.323 131.003 141.249C127.292 140.175 122.092 139.638 115.402 139.638H107.272V122.279H115.549C122.141 122.279 127.146 121.669 130.563 120.448C134.03 119.179 136.374 117.47 137.595 115.321C138.864 113.124 139.499 110.634 139.499 107.851C139.499 104.042 138.327 101.063 135.983 98.915C133.64 96.7666 129.733 95.6924 124.265 95.6924C120.847 95.6924 117.722 96.1318 114.89 97.0107C112.106 97.8408 109.592 98.8662 107.346 100.087C105.1 101.259 103.122 102.406 101.413 103.529L90.9395 87.9287C95.1387 84.9014 100.046 82.3867 105.661 80.3848C111.325 78.3828 118.063 77.3818 125.876 77.3818C136.911 77.3818 145.651 79.6035 152.097 84.0469C158.542 88.4902 161.765 94.7646 161.765 102.87Z" fill="white"/>
</svg>
