<svg width="256" height="256" viewBox="0 0 256 256" fill="none" xmlns="http://www.w3.org/2000/svg">
<rect width="256" height="256" rx="128" fill="#FF9500"/>
<path d="M168.356 163.808H155.466V186H133.347V163.808H87.6436V148.061L134.592 78.9199H155.466V146.229H168.356V163.808ZM133.347 146.229V128.065C133.347 126.356 133.371 124.33 133.42 121.986C133.518 119.643 133.615 117.299 133.713 114.955C133.811 112.611 133.908 110.536 134.006 108.729C134.152 106.874 134.25 105.58 134.299 104.848H133.713C132.785 106.85 131.809 108.803 130.783 110.707C129.758 112.562 128.562 114.516 127.194 116.566L107.565 146.229H133.347Z" fill="white"/>
</svg>
