<svg width="256" height="256" viewBox="0 0 256 256" fill="none" xmlns="http://www.w3.org/2000/svg">
<rect width="256" height="256" rx="128" fill="#FF9500"/>
<path d="M130.051 117.592C136.594 117.592 142.404 118.837 147.482 121.327C152.609 123.817 156.638 127.479 159.567 132.313C162.497 137.147 163.962 143.104 163.962 150.185C163.962 157.899 162.351 164.564 159.128 170.18C155.954 175.746 151.193 180.019 144.846 182.997C138.547 185.976 130.686 187.465 121.262 187.465C115.646 187.465 110.349 186.977 105.368 186C100.437 185.072 96.1152 183.632 92.4043 181.679V162.123C96.1152 164.076 100.559 165.736 105.734 167.104C110.959 168.422 115.866 169.081 120.456 169.081C124.948 169.081 128.732 168.495 131.809 167.323C134.885 166.103 137.204 164.247 138.767 161.757C140.378 159.218 141.184 155.995 141.184 152.089C141.184 146.864 139.426 142.86 135.91 140.077C132.395 137.294 126.999 135.902 119.724 135.902C116.94 135.902 114.035 136.171 111.008 136.708C108.029 137.245 105.539 137.782 103.537 138.319L94.5283 133.485L98.5566 78.9199H156.638V98.1094H118.405L116.428 119.13C118.088 118.788 119.895 118.446 121.848 118.104C123.801 117.763 126.535 117.592 130.051 117.592Z" fill="white"/>
</svg>
