<svg width="256" height="256" viewBox="0 0 256 256" fill="none" xmlns="http://www.w3.org/2000/svg">
<rect width="256" height="256" rx="128" fill="#FF9500"/>
<path d="M90.3535 140.517C90.3535 134.364 90.793 128.285 91.6719 122.279C92.5996 116.225 94.1865 110.536 96.4326 105.214C98.6787 99.8428 101.828 95.1064 105.881 91.0049C109.934 86.8545 115.085 83.6074 121.335 81.2637C127.585 78.8711 135.153 77.6748 144.04 77.6748C146.14 77.6748 148.581 77.7725 151.364 77.9678C154.196 78.1143 156.54 78.3828 158.396 78.7734V96.8643C156.442 96.4248 154.343 96.083 152.097 95.8389C149.899 95.5459 147.702 95.3994 145.505 95.3994C136.618 95.3994 129.733 96.8154 124.851 99.6475C120.017 102.479 116.599 106.41 114.597 111.439C112.644 116.42 111.496 122.23 111.154 128.871H112.106C113.474 126.479 115.183 124.354 117.233 122.499C119.333 120.644 121.872 119.179 124.851 118.104C127.829 116.981 131.32 116.42 135.324 116.42C141.574 116.42 146.994 117.763 151.584 120.448C156.174 123.085 159.714 126.918 162.204 131.947C164.694 136.977 165.939 143.104 165.939 150.331C165.939 158.046 164.45 164.687 161.472 170.253C158.493 175.819 154.27 180.092 148.801 183.07C143.381 186 136.936 187.465 129.465 187.465C123.996 187.465 118.894 186.537 114.157 184.682C109.421 182.777 105.271 179.896 101.706 176.039C98.1416 172.182 95.3584 167.323 93.3564 161.464C91.3545 155.556 90.3535 148.573 90.3535 140.517ZM129.025 169.374C133.469 169.374 137.082 167.86 139.865 164.833C142.648 161.806 144.04 157.069 144.04 150.624C144.04 145.399 142.819 141.298 140.378 138.319C137.985 135.292 134.348 133.778 129.465 133.778C126.145 133.778 123.215 134.535 120.676 136.049C118.186 137.514 116.257 139.394 114.89 141.688C113.522 143.935 112.839 146.254 112.839 148.646C112.839 151.137 113.181 153.603 113.864 156.044C114.548 158.485 115.573 160.707 116.94 162.709C118.308 164.711 119.992 166.322 121.994 167.543C124.045 168.764 126.389 169.374 129.025 169.374Z" fill="white"/>
</svg>
