<svg width="256" height="256" viewBox="0 0 256 256" fill="none" xmlns="http://www.w3.org/2000/svg">
<rect width="256" height="256" rx="128" fill="#FF9500"/>
<path d="M128 77.5283C134.152 77.5283 139.816 78.4805 144.992 80.3848C150.217 82.2891 154.392 85.1699 157.517 89.0273C160.642 92.8359 162.204 97.6211 162.204 103.383C162.204 107.68 161.35 111.439 159.641 114.662C157.98 117.885 155.71 120.717 152.829 123.158C149.948 125.551 146.677 127.65 143.015 129.457C146.823 131.459 150.437 133.803 153.854 136.488C157.272 139.125 160.056 142.226 162.204 145.79C164.401 149.354 165.5 153.505 165.5 158.241C165.5 164.198 163.913 169.374 160.739 173.769C157.565 178.114 153.171 181.483 147.556 183.876C141.94 186.269 135.422 187.465 128 187.465C119.992 187.465 113.181 186.317 107.565 184.022C101.95 181.728 97.6777 178.456 94.748 174.208C91.8184 169.911 90.3535 164.784 90.3535 158.827C90.3535 153.944 91.2568 149.696 93.0635 146.083C94.9189 142.47 97.4092 139.369 100.534 136.781C103.659 134.145 107.102 131.898 110.861 130.043C107.688 128.041 104.782 125.771 102.146 123.231C99.5576 120.692 97.4824 117.787 95.9199 114.516C94.4062 111.244 93.6494 107.484 93.6494 103.236C93.6494 97.5723 95.2363 92.8359 98.4102 89.0273C101.633 85.2188 105.856 82.3623 111.081 80.458C116.306 78.5049 121.945 77.5283 128 77.5283ZM111.301 157.509C111.301 161.366 112.668 164.564 115.402 167.104C118.186 169.594 122.287 170.839 127.707 170.839C133.322 170.839 137.521 169.643 140.305 167.25C143.088 164.809 144.479 161.61 144.479 157.655C144.479 154.921 143.674 152.528 142.062 150.478C140.5 148.427 138.522 146.596 136.13 144.984C133.737 143.324 131.32 141.786 128.879 140.37L126.901 139.345C123.776 140.761 121.042 142.348 118.698 144.105C116.403 145.863 114.597 147.841 113.278 150.038C111.96 152.235 111.301 154.726 111.301 157.509ZM127.854 94.0811C124.143 94.0811 121.066 95.0332 118.625 96.9375C116.184 98.8418 114.963 101.527 114.963 104.994C114.963 107.436 115.549 109.584 116.721 111.439C117.941 113.246 119.528 114.833 121.481 116.2C123.483 117.567 125.656 118.837 128 120.009C130.246 118.935 132.346 117.738 134.299 116.42C136.252 115.102 137.839 113.515 139.06 111.659C140.28 109.804 140.891 107.582 140.891 104.994C140.891 101.527 139.646 98.8418 137.155 96.9375C134.714 95.0332 131.613 94.0811 127.854 94.0811Z" fill="white"/>
</svg>
