<svg width="256" height="256" viewBox="0 0 256 256" fill="none" xmlns="http://www.w3.org/2000/svg">
<g clip-path="url(#clip0_8142_40795)">
<rect width="256" height="256" rx="128" fill="#FF3B30"/>
<path d="M187.668 135.98C187.668 141.84 186.366 147.276 183.762 152.289C181.158 157.302 177.512 161.339 172.824 164.398C168.202 167.458 162.831 168.988 156.711 168.988C150.982 168.988 145.708 167.589 140.891 164.789C136.073 161.924 131.613 157.595 127.512 151.801C123.736 156.749 119.439 160.753 114.621 163.812C109.803 166.872 104.823 168.402 99.6797 168.402C93.5599 168.402 88.1237 167.035 83.3711 164.301C78.6836 161.566 75.0052 157.725 72.3359 152.777C69.6667 147.829 68.332 142.035 68.332 135.395C68.332 129.34 69.6341 123.839 72.2383 118.891C74.8424 113.878 78.4883 109.906 83.1758 106.977C87.8633 104.047 93.3646 102.582 99.6797 102.582C105.018 102.582 110.096 103.884 114.914 106.488C119.732 109.092 124.126 113.454 128.098 119.574C131.939 114.366 136.171 110.297 140.793 107.367C145.48 104.438 150.786 102.973 156.711 102.973C165.891 102.973 173.345 106 179.074 112.055C184.803 118.109 187.668 126.085 187.668 135.98ZM116.867 135.395C114.393 130.967 111.854 127.68 109.25 125.531C106.646 123.318 103.716 122.211 100.461 122.211C96.6849 122.211 93.6901 123.513 91.4766 126.117C89.3281 128.721 88.2539 131.879 88.2539 135.59C88.2539 138.975 89.263 142.003 91.2812 144.672C93.3646 147.276 96.4896 148.578 100.656 148.578C103.586 148.578 106.353 147.504 108.957 145.355C111.626 143.207 114.263 139.887 116.867 135.395ZM167.648 135.785C167.648 132.074 166.509 128.982 164.23 126.508C161.952 124.034 158.99 122.797 155.344 122.797C152.544 122.797 149.777 123.871 147.043 126.02C144.309 128.103 141.607 131.358 138.938 135.785C141.411 139.952 144.048 143.24 146.848 145.648C149.647 147.992 152.544 149.164 155.539 149.164C159.185 149.164 162.115 147.862 164.328 145.258C166.542 142.654 167.648 139.496 167.648 135.785Z" fill="white"/>
</g>
<defs>
<clipPath id="clip0_8142_40795">
<rect width="256" height="256" rx="128" fill="white"/>
</clipPath>
</defs>
</svg>
