<svg width="256" height="256" viewBox="0 0 256 256" fill="none" xmlns="http://www.w3.org/2000/svg">
<g clip-path="url(#clip0_8142_40795)">
<rect width="256" height="256" rx="128" fill="#FF3B30"/>
<path d="M187.668 128.98C187.668 134.84 186.366 140.276 183.762 145.289C181.158 150.302 177.512 154.339 172.824 157.398C168.202 160.458 162.831 161.988 156.711 161.988C150.982 161.988 145.708 160.589 140.891 157.789C136.073 154.924 131.613 150.595 127.512 144.801C123.736 149.749 119.439 153.753 114.621 156.812C109.803 159.872 104.823 161.402 99.6797 161.402C93.5599 161.402 88.1237 160.035 83.3711 157.301C78.6836 154.566 75.0052 150.725 72.3359 145.777C69.6667 140.829 68.332 135.035 68.332 128.395C68.332 122.34 69.6341 116.839 72.2383 111.891C74.8424 106.878 78.4883 102.906 83.1758 99.9766C87.8633 97.0469 93.3646 95.582 99.6797 95.582C105.018 95.582 110.096 96.8841 114.914 99.4883C119.732 102.092 124.126 106.454 128.098 112.574C131.939 107.366 136.171 103.297 140.793 100.367C145.48 97.4375 150.786 95.9727 156.711 95.9727C165.891 95.9727 173.345 99 179.074 105.055C184.803 111.109 187.668 119.085 187.668 128.98ZM116.867 128.395C114.393 123.967 111.854 120.68 109.25 118.531C106.646 116.318 103.716 115.211 100.461 115.211C96.6849 115.211 93.6901 116.513 91.4766 119.117C89.3281 121.721 88.2539 124.879 88.2539 128.59C88.2539 131.975 89.263 135.003 91.2812 137.672C93.3646 140.276 96.4896 141.578 100.656 141.578C103.586 141.578 106.353 140.504 108.957 138.355C111.626 136.207 114.263 132.887 116.867 128.395ZM167.648 128.785C167.648 125.074 166.509 121.982 164.23 119.508C161.952 117.034 158.99 115.797 155.344 115.797C152.544 115.797 149.777 116.871 147.043 119.02C144.309 121.103 141.607 124.358 138.938 128.785C141.411 132.952 144.048 136.24 146.848 138.648C149.647 140.992 152.544 142.164 155.539 142.164C159.185 142.164 162.115 140.862 164.328 138.258C166.542 135.654 167.648 132.496 167.648 128.785Z" fill="white"/>
</g>
<defs>
<clipPath id="clip0_8142_40795">
<rect width="256" height="256" rx="128" fill="white"/>
</clipPath>
</defs>
</svg>
