<svg xmlns="http://www.w3.org/2000/svg" width="56" height="60" fill="none"><g clip-path="url(#a)"><path fill="#FDCF5A" d="M55.5 2A1.5 1.5 0 0 0 54 .5H40.5a1.5 1.5 0 0 0 0 3h12v12a1.5 1.5 0 0 0 3 0V2ZM43.06 15.06l12-12L52.94.94l-12 12 2.12 2.12Z"/><path fill="url(#b)" fill-rule="evenodd" d="M9.314 18.718A5.66 5.66 0 0 1 13.364 17h22.909a5.66 5.66 0 0 1 4.05 1.717A5.935 5.935 0 0 1 42 22.864v31.272a5.935 5.935 0 0 1-1.678 4.147A5.66 5.66 0 0 1 36.273 60H5.728a5.66 5.66 0 0 1-4.05-1.717A5.935 5.935 0 0 1 0 54.136v-17.59c0-3.23 2.573-5.864 5.727-5.864h1.91v-7.818c0-1.555.603-3.047 1.677-4.146ZM7.636 34.591H5.727c-1.046 0-1.909.883-1.909 1.954v17.591c0 .519.201 1.016.56 1.382.357.367.843.573 1.35.573.506 0 .991-.206 1.35-.573.357-.366.558-.863.558-1.382V34.591Zm3.49 21.5a5.99 5.99 0 0 0 .329-1.955V22.864c0-.519.2-1.016.559-1.382a1.887 1.887 0 0 1 1.35-.573h22.909c.506 0 .992.206 1.35.573.358.366.559.863.559 1.382v31.272c0 .519-.201 1.016-.56 1.382a1.887 1.887 0 0 1-1.35.573H11.127Z" clip-rule="evenodd"/><path fill="url(#c)" fill-rule="evenodd" d="M15.273 26.773c0-.519.2-1.016.559-1.382a1.887 1.887 0 0 1 1.35-.573h15.273c.506 0 .992.206 1.35.573.358.366.559.863.559 1.382v7.818c0 .518-.201 1.015-.56 1.382a1.887 1.887 0 0 1-1.35.572H17.183c-.506 0-.992-.206-1.35-.572a1.979 1.979 0 0 1-.56-1.382v-7.818Zm3.818 1.954v3.91h11.454v-3.91H19.091ZM15.273 42.41c0-.518.2-1.015.559-1.382a1.887 1.887 0 0 1 1.35-.572h15.273c.506 0 .992.206 1.35.572.358.367.559.864.559 1.382 0 .519-.201 1.016-.56 1.382a1.887 1.887 0 0 1-1.35.573H17.183c-.506 0-.992-.206-1.35-.573a1.979 1.979 0 0 1-.56-1.382Zm0 7.818c0-.518.2-1.015.559-1.382a1.887 1.887 0 0 1 1.35-.572h9.545c.507 0 .992.206 1.35.572.358.367.56.864.56 1.382 0 .519-.202 1.016-.56 1.382a1.887 1.887 0 0 1-1.35.573h-9.545c-.506 0-.992-.206-1.35-.573a1.978 1.978 0 0 1-.56-1.382Z" clip-rule="evenodd"/></g><defs><linearGradient id="b" x1="-2.885" x2="46.281" y1="24.028" y2="47.079" gradientUnits="userSpaceOnUse"><stop stop-color="#4CD174"/><stop offset="1" stop-color="#6DB8F2"/></linearGradient><linearGradient id="c" x1="-2.885" x2="46.281" y1="24.028" y2="47.079" gradientUnits="userSpaceOnUse"><stop stop-color="#4CD174"/><stop offset="1" stop-color="#6DB8F2"/></linearGradient><clipPath id="a"><path fill="#fff" d="M0 0h56v60H0z"/></clipPath></defs></svg>