<svg width="149" height="32" viewBox="0 0 149 32" fill="none" xmlns="http://www.w3.org/2000/svg">
    <path d="M45 10.4099V28.6867H51.6335C58.1322 28.6867 62.4467 25.6841 62.4467 19.1828C62.4467 13.5692 59.049 10.4099 51.3908 10.4099H45ZM49.3145 24.7702V14.3264H51.7144C56.2716 14.3264 57.9435 16.1018 57.9435 19.4961C57.9435 22.6815 56.0559 24.7702 51.7684 24.7702H49.3145Z" fill="#222222"/>
    <path d="M71.5798 15.3185C66.9687 15.3446 64.1643 17.6423 64.1643 22.1332C64.1643 26.7023 67.1844 29 71.3371 29C75.9213 28.9739 78.7526 26.7023 78.7526 22.1854C78.7526 17.6162 75.7325 15.3185 71.5798 15.3185ZM68.3439 22.107C68.3439 19.7572 69.4765 18.765 71.445 18.765C73.2786 18.7911 74.573 19.7833 74.573 22.1332V22.2115C74.573 24.5614 73.4404 25.5535 71.4719 25.5535C69.6113 25.5535 68.3439 24.5614 68.3439 22.1854V22.107Z" fill="#222222"/>
    <path d="M89.5258 28.6867H93.5976V21.1932C93.5706 19.5483 94.4605 18.8172 95.9706 18.8172H96.0245C97.2649 18.8433 97.8042 19.5222 97.8042 20.9582V28.6867H101.876V19.8355C101.876 16.9112 100.231 15.3969 97.5076 15.3708H97.4806C95.2964 15.3708 93.8403 16.6501 93.3819 18.2167C92.8426 16.3629 91.3595 15.3969 89.2561 15.3708H89.2022C87.045 15.3708 85.5619 16.7285 85.1035 18.1645V15.6319H81.3013V28.6867H85.3461V21.1932C85.2652 19.4439 86.1281 18.8433 87.6652 18.8172C89.0135 18.8172 89.5258 19.4961 89.5258 20.9582V28.6867Z" fill="#222222"/>
    <path d="M105.511 21.0366C106.428 19.7311 107.696 18.7911 110.554 18.7911C112.226 18.7911 112.738 19.3394 112.738 20.8016V20.906H109.826C106.779 20.906 104.406 21.7415 104.406 24.8486C104.406 27.2768 105.862 28.8956 108.666 28.8956C110.77 28.8956 112.307 27.8512 112.954 26.3368V28.6867H116.783V20.0705C116.783 16.8329 115.003 15.3708 110.554 15.3708C108.019 15.3708 106.401 15.8407 105.511 16.4935V21.0366ZM110.068 25.4491C109.044 25.4491 108.478 25.0313 108.478 24.3264C108.478 23.4909 109.206 23.1775 110.5 23.1775H112.738V23.9347C112.603 24.8225 111.606 25.4491 110.068 25.4491Z" fill="#222222"/>
    <path d="M120.74 26.624C120.74 27.9034 121.306 28.9478 123.167 28.9478C125.108 28.9478 125.674 27.9034 125.674 26.624C125.674 25.3185 125.108 24.248 123.167 24.248C121.306 24.248 120.74 25.3185 120.74 26.624Z" fill="#222222"/>
    <path d="M130.212 21.0366C131.129 19.7311 132.396 18.7911 135.255 18.7911C136.927 18.7911 137.439 19.3394 137.439 20.8016V20.906H134.527C131.48 20.906 129.107 21.7415 129.107 24.8486C129.107 27.2768 130.563 28.8956 133.367 28.8956C135.47 28.8956 137.007 27.8512 137.655 26.3368V28.6867H141.484V20.0705C141.484 16.8329 139.704 15.3708 135.255 15.3708C132.72 15.3708 131.102 15.8407 130.212 16.4935V21.0366ZM134.769 25.4491C133.745 25.4491 133.178 25.0313 133.178 24.3264C133.178 23.4909 133.906 23.1775 135.201 23.1775H137.439V23.9347C137.304 24.8225 136.306 25.4491 134.769 25.4491Z" fill="#222222"/>
    <path d="M144.524 11.0104C144.524 12.2637 145.414 13.0731 146.789 13.0731C148.11 13.0731 149 12.2637 149 11.0104C149 9.78329 148.11 9 146.789 9C145.414 9 144.524 9.78329 144.524 11.0104ZM144.739 28.6867H148.811V15.6319H144.739V28.6867Z" fill="#222222"/>
    <path fill-rule="evenodd" clip-rule="evenodd" d="M12.5967 7.26599C11.8835 6.6856 10.8592 6.6885 10.1493 7.27291L0.702278 15.0505C0.257575 15.4166 0 15.962 0 16.5375V29.5224C0 30.5868 0.864167 31.4497 1.93017 31.4497H20.9424C22.0084 31.4497 22.8725 30.5868 22.8725 29.5224V16.5442C22.8725 15.9648 22.6115 15.4162 22.1618 15.0502L12.5967 7.26599ZM19.0122 27.5951V17.4597L11.3843 11.252L3.86034 17.4463V27.5951H19.0122Z" fill="#4CD174"/>
    <circle cx="25.0054" cy="4.07053" r="4.07053" fill="#FDCF5A"/>
</svg>
