<svg width="40" height="40" fill="none" xmlns="http://www.w3.org/2000/svg"><path d="M0 8a8 8 0 0 1 8-8h24a8 8 0 0 1 8 8v24a8 8 0 0 1-8 8H8a8 8 0 0 1-8-8V8Z" fill="#D0D3E5"/><path fill-rule="evenodd" clip-rule="evenodd" d="M18.218 11.458a2.018 2.018 0 0 0-2.568.007L5.737 19.68A2.04 2.04 0 0 0 5 21.25v13.714A2.03 2.03 0 0 0 7.025 37h19.95A2.03 2.03 0 0 0 29 34.964V21.257a2.04 2.04 0 0 0-.746-1.578l-10.036-8.221Zm6.731 21.47V22.225l-8.004-6.556-7.894 6.542V32.93h15.898Z" fill="white"/><circle cx="31.5" cy="7.5" r="4.5" fill="white"/></svg>