<svg width="128" height="25" fill="none" xmlns="http://www.w3.org/2000/svg"><path fill-rule="evenodd" clip-rule="evenodd" d="M12.5635 1.1615c-.7113-.572-1.7329-.5692-2.4409.0069L.7004 8.8348C.257 9.1959 0 9.7333 0 10.3006v12.7995c0 1.0492.8619 1.8998 1.925 1.8998h18.9622c1.0632 0 1.9251-.8506 1.9251-1.8998V10.3072c0-.571-.2603-1.1118-.7089-1.4726l-9.5399-7.673Zm6.3986 20.0389v-9.9907l-7.6078-6.119-7.5041 6.1058v10.0039H18.962Z" fill="url(#a)"/><path d="M40 4.1984v15.5353h5.613c5.4989 0 9.1496-2.5522 9.1496-8.0783 0-4.7716-2.8749-7.457-9.355-7.457H40Zm3.6507 12.2063V7.5274h2.0307c3.8561 0 5.2708 1.5091 5.2708 4.3943 0 2.7075-1.5972 4.483-5.2251 4.483h-2.0764ZM62.4906 8.3708c-3.9017.0222-6.2747 1.9752-6.2747 5.7924 0 3.8838 2.5555 5.8368 6.0694 5.8368 3.8788-.0222 6.2746-1.953 6.2746-5.7924 0-3.8838-2.5555-5.8368-6.0693-5.8368Zm-2.738 5.7702c0-1.9974.9583-2.8407 2.6239-2.8407 1.5516.0222 2.6468.8655 2.6468 2.8629v.0666c0 1.9974-.9583 2.8407-2.624 2.8407-1.5743 0-2.6467-.8433-2.6467-2.8629v-.0666ZM77.6757 19.7337h3.4453v-6.3695c-.0228-1.3981.7302-2.0196 2.0079-2.0196h.0457c1.0496.0222 1.5059.5993 1.5059 1.8199v6.5692h3.4454v-7.5235c0-2.4857-1.3919-3.7729-3.6964-3.795h-.0228c-1.8482 0-3.0803 1.0874-3.4682 2.419-.4563-1.5757-1.7113-2.3969-3.491-2.419h-.0456c-1.8254 0-3.0803 1.154-3.4682 2.3746V8.6371h-3.2172v11.0966h3.4225v-6.3695c-.0684-1.4869.6617-1.9974 1.9623-2.0196 1.1409 0 1.5744.5771 1.5744 1.8199v6.5692ZM91.2019 13.2311c.7758-1.1097 1.8482-1.9086 4.2668-1.9086 1.4146 0 1.8481.466 1.8481 1.7088v.0888h-2.4642c-2.5783 0-4.5862.7102-4.5862 3.3512 0 2.0639 1.2321 3.4399 3.6051 3.4399 1.7797 0 3.0803-.8877 3.6279-2.1749v1.9974h3.2396v-7.3238c0-2.752-1.5055-3.9948-5.2703-3.9948-2.1448 0-3.5139.3995-4.2668.9543v3.8617Zm3.8561 3.7506c-.8671 0-1.3462-.3551-1.3462-.9543 0-.7102.616-.9765 1.7112-.9765h1.8938v.6436c-.114.7546-.9583 1.2872-2.2588 1.2872ZM104.087 17.9804c0 1.0875.48 1.9752 2.054 1.9752 1.643 0 2.122-.8877 2.122-1.9752 0-1.1096-.479-2.0196-2.122-2.0196-1.574 0-2.054.91-2.054 2.0196ZM112.103 13.2311c.775-1.1097 1.848-1.9086 4.266-1.9086 1.415 0 1.849.466 1.849 1.7088v.0888h-2.465c-2.578 0-4.586.7102-4.586 3.3512 0 2.0639 1.232 3.4399 3.605 3.4399 1.78 0 3.08-.8877 3.628-2.1749v1.9974h3.24v-7.3238c0-2.752-1.506-3.9948-5.271-3.9948-2.144 0-3.513.3995-4.266.9543v3.8617Zm3.856 3.7506c-.867 0-1.347-.3551-1.347-.9543 0-.7102.617-.9765 1.712-.9765h1.894v.6436c-.115.7546-.959 1.2872-2.259 1.2872ZM124.212 4.7089c0 1.0652.753 1.7532 1.917 1.7532 1.118 0 1.871-.688 1.871-1.7532C128 3.6658 127.247 3 126.129 3c-1.164 0-1.917.6658-1.917 1.7089Zm.183 15.0248h3.445V8.6371h-3.445v11.0966Z" fill="#222"/><defs><linearGradient id="a" x1="0" y1="12.8671" x2="18.2733" y2="21.9744" gradientUnits="userSpaceOnUse"><stop stop-color="#4CD174"/><stop offset="1" stop-color="#6DB8F2"/></linearGradient></defs></svg>