<svg width="104" height="20" fill="none" xmlns="http://www.w3.org/2000/svg"><path d="M0 1.41v18.277h6.634c6.498 0 10.813-3.003 10.813-9.504 0-5.614-3.398-8.773-11.056-8.773H0Zm4.314 14.36V5.326h2.4c4.558 0 6.23 1.776 6.23 5.17 0 3.185-1.888 5.274-6.176 5.274H4.314ZM26.58 6.319c-4.611.026-7.416 2.323-7.416 6.814 0 4.57 3.02 6.867 7.173 6.867 4.584-.026 7.416-2.298 7.416-6.815 0-4.569-3.02-6.866-7.173-6.866Zm-3.236 6.788c0-2.35 1.133-3.342 3.101-3.342 1.834.026 3.128 1.018 3.128 3.368v.079c0 2.35-1.133 3.341-3.101 3.341-1.86 0-3.128-.992-3.128-3.368v-.078ZM44.526 19.687h4.072v-7.494c-.027-1.645.863-2.376 2.373-2.376h.054c1.24.026 1.78.705 1.78 2.141v7.729h4.071v-8.852c0-2.924-1.645-4.438-4.368-4.464h-.027c-2.185 0-3.64 1.28-4.1 2.846-.538-1.854-2.022-2.82-4.125-2.846h-.054c-2.157 0-3.64 1.357-4.099 2.793V6.632h-3.802v13.055h4.045v-7.494c-.08-1.75.782-2.35 2.32-2.376 1.348 0 1.86.68 1.86 2.141v7.729ZM60.511 12.037c.917-1.306 2.184-2.246 5.043-2.246 1.672 0 2.184.548 2.184 2.01v.105h-2.912c-3.047 0-5.42.835-5.42 3.943 0 2.428 1.456 4.047 4.26 4.047 2.104 0 3.64-1.045 4.288-2.56v2.35h3.829V11.07c0-3.237-1.78-4.7-6.23-4.7-2.534 0-4.152.47-5.042 1.123v4.544Zm4.557 4.412c-1.024 0-1.59-.418-1.59-1.123 0-.835.728-1.149 2.022-1.149h2.238v.758c-.135.887-1.132 1.514-2.67 1.514ZM75.74 17.624c0 1.28.566 2.324 2.427 2.324 1.941 0 2.507-1.045 2.507-2.324 0-1.305-.566-2.376-2.507-2.376-1.861 0-2.427 1.07-2.427 2.376ZM85.212 12.037c.917-1.306 2.184-2.246 5.043-2.246 1.672 0 2.184.548 2.184 2.01v.105h-2.912c-3.047 0-5.42.835-5.42 3.943 0 2.428 1.456 4.047 4.26 4.047 2.103 0 3.64-1.045 4.288-2.56v2.35h3.829V11.07c0-3.237-1.78-4.7-6.23-4.7-2.534 0-4.152.47-5.042 1.123v4.544Zm4.557 4.412c-1.024 0-1.59-.418-1.59-1.123 0-.835.727-1.149 2.022-1.149h2.238v.758c-.135.887-1.133 1.514-2.67 1.514ZM99.524 2.01c0 1.254.89 2.063 2.265 2.063 1.321 0 2.211-.81 2.211-2.063 0-1.227-.89-2.01-2.211-2.01-1.375 0-2.265.783-2.265 2.01Zm.215 17.677h4.072V6.632h-4.072v13.055Z" fill="#222"/></svg>