<svg width="60" height="40" viewBox="0 0 60 40" fill="none" xmlns="http://www.w3.org/2000/svg">
<path d="M0 12C0 5.37258 5.37258 0 12 0H48C54.6274 0 60 5.37258 60 12V28C60 34.6274 54.6274 40 48 40H12C5.37258 40 0 34.6274 0 28V12Z" fill="#222222"/>
<rect x="4" y="23" width="2" height="6" rx="1" fill="#4C4D54"/>
<rect x="7" y="23" width="2" height="6" rx="1" fill="#4C4D54"/>
<rect x="10" y="23" width="2" height="6" rx="1" fill="#4C4D54"/>
<rect x="13" y="23" width="2" height="6" rx="1" fill="#4C4D54"/>
<rect x="17.6667" y="23" width="2" height="6" rx="1" fill="#4C4D54"/>
<rect x="20.6667" y="23" width="2" height="6" rx="1" fill="#4C4D54"/>
<rect x="23.6667" y="23" width="2" height="6" rx="1" fill="#4C4D54"/>
<rect x="26.6667" y="23" width="2" height="6" rx="1" fill="#4C4D54"/>
<rect x="31.3333" y="23" width="2" height="6" rx="1" fill="#4C4D54"/>
<rect x="34.3333" y="23" width="2" height="6" rx="1" fill="#4C4D54"/>
<rect x="37.3333" y="23" width="2" height="6" rx="1" fill="#4C4D54"/>
<rect x="40.3333" y="23" width="2" height="6" rx="1" fill="#4C4D54"/>
<rect x="45" y="23" width="2" height="6" rx="1" fill="#4C4D54"/>
<rect x="48" y="23" width="2" height="6" rx="1" fill="#4C4D54"/>
<rect x="51" y="23" width="2" height="6" rx="1" fill="#4C4D54"/>
<rect x="54" y="23" width="2" height="6" rx="1" fill="#4C4D54"/>
</svg>
