<svg width="184" height="117" viewBox="0 0 184 117" fill="none" xmlns="http://www.w3.org/2000/svg">
<path d="M92 116.998C142.81 116.998 184 108.055 184 97.0225C184 85.9903 142.81 77.0469 92 77.0469C41.1898 77.0469 0 85.9903 0 97.0225C0 108.055 41.1898 116.998 92 116.998Z" fill="#F5F5F5"/>
<rect x="55" y="75" width="16" height="16" rx="4" fill="#FFD8BF"/>
<rect x="55" y="57" width="16" height="16" rx="4" fill="#DCE0E6"/>
<rect x="55" y="39" width="16" height="16" rx="4" fill="#DCE0E6"/>
<rect x="55" y="21" width="16" height="16" rx="4" fill="#FFD8BF"/>
<rect x="73" y="21" width="16" height="16" rx="4" fill="#DCE0E6"/>
<rect x="55" y="3" width="16" height="16" rx="4" fill="#DCE0E6"/>
<rect x="73" y="3" width="16" height="16" rx="4" fill="#DCE0E6"/>
<rect x="73" y="75" width="16" height="16" rx="4" fill="#DCE0E6"/>
<rect x="73" y="57" width="16" height="16" rx="4" fill="#DCE0E6"/>
<rect x="73" y="39" width="16" height="16" rx="4" fill="#FFD8BF"/>
<rect x="93" y="75" width="16" height="16" rx="4" fill="#DCE0E6"/>
<rect x="93" y="57" width="16" height="16" rx="4" fill="#DCE0E6"/>
<rect x="93" y="39" width="16" height="16" rx="4" fill="#DCE0E6"/>
<rect x="94" y="21" width="16" height="16" rx="4" fill="#FFD8BF"/>
<rect x="112" y="21" width="16" height="16" rx="4" fill="#DCE0E6"/>
<rect x="94" y="3" width="16" height="16" rx="4" fill="#DCE0E6"/>
<rect x="112" y="3" width="16" height="16" rx="4" fill="#FFD8BF"/>
<rect x="111" y="75" width="16" height="16" rx="4" fill="#DCE0E6"/>
<rect x="111" y="57" width="16" height="16" rx="4" fill="#FFD8BF"/>
<rect x="111" y="39" width="16" height="16" rx="4" fill="#DCE0E6"/>
</svg>
