<svg width="128" height="103" fill="none" xmlns="http://www.w3.org/2000/svg"><path d="M64 103c35.346 0 64-6.492 64-14.5S99.346 74 64 74C28.654 74 0 80.492 0 88.5S28.654 103 64 103Z" fill="#fff"/><rect opacity=".5" x="27" y="72" width="16" height="16" rx="4" fill="url(#a)"/><rect x="27" y="54" width="16" height="16" rx="4" fill="#E6E8F1"/><rect x="27" y="36" width="16" height="16" rx="4" fill="#E6E8F1"/><rect opacity=".5" x="27" y="18" width="16" height="16" rx="4" fill="url(#b)"/><rect x="45" y="18" width="16" height="16" rx="4" fill="#E6E8F1"/><rect x="27" width="16" height="16" rx="4" fill="#E6E8F1"/><rect x="45" width="16" height="16" rx="4" fill="#E6E8F1"/><rect x="45" y="72" width="16" height="16" rx="4" fill="#E6E8F1"/><rect x="45" y="54" width="16" height="16" rx="4" fill="#E6E8F1"/><rect opacity=".5" x="45" y="36" width="16" height="16" rx="4" fill="url(#c)"/><rect x="65" y="72" width="16" height="16" rx="4" fill="#E6E8F1"/><rect x="65" y="54" width="16" height="16" rx="4" fill="#E6E8F1"/><rect x="65" y="36" width="16" height="16" rx="4" fill="#E6E8F1"/><rect opacity=".5" x="66" y="18" width="16" height="16" rx="4" fill="url(#d)"/><rect x="84" y="18" width="16" height="16" rx="4" fill="#E6E8F1"/><rect x="66" width="16" height="16" rx="4" fill="#E6E8F1"/><rect opacity=".5" x="84" width="16" height="16" rx="4" fill="url(#e)"/><rect x="83" y="72" width="16" height="16" rx="4" fill="#E6E8F1"/><rect opacity=".5" x="83" y="54" width="16" height="16" rx="4" fill="url(#f)"/><rect x="83" y="36" width="16" height="16" rx="4" fill="#E6E8F1"/><defs><linearGradient id="a" x1="27" y1="80" x2="40.127" y2="86.142" gradientUnits="userSpaceOnUse"><stop stop-color="#4CD174"/><stop offset="1" stop-color="#6DB8F2"/></linearGradient><linearGradient id="b" x1="27" y1="26" x2="40.127" y2="32.142" gradientUnits="userSpaceOnUse"><stop stop-color="#4CD174"/><stop offset="1" stop-color="#6DB8F2"/></linearGradient><linearGradient id="c" x1="45" y1="44" x2="58.127" y2="50.142" gradientUnits="userSpaceOnUse"><stop stop-color="#4CD174"/><stop offset="1" stop-color="#6DB8F2"/></linearGradient><linearGradient id="d" x1="66" y1="26" x2="79.126" y2="32.142" gradientUnits="userSpaceOnUse"><stop stop-color="#4CD174"/><stop offset="1" stop-color="#6DB8F2"/></linearGradient><linearGradient id="e" x1="84" y1="8" x2="97.126" y2="14.142" gradientUnits="userSpaceOnUse"><stop stop-color="#4CD174"/><stop offset="1" stop-color="#6DB8F2"/></linearGradient><linearGradient id="f" x1="83" y1="62" x2="96.126" y2="68.142" gradientUnits="userSpaceOnUse"><stop stop-color="#4CD174"/><stop offset="1" stop-color="#6DB8F2"/></linearGradient></defs></svg>
