<?xml version="1.0" encoding="UTF-8" standalone="no"?>
<!DOCTYPE svg PUBLIC "-//W3C//DTD SVG 1.1//EN" "http://www.w3.org/Graphics/SVG/1.1/DTD/svg11.dtd">
<svg style="fill-rule:evenodd;clip-rule:evenodd;stroke-linecap:round;stroke-linejoin:round;"
     xmlns:vectornator="http://vectornator.io"
     xmlns="http://www.w3.org/2000/svg" xml:space="preserve" version="1.1" viewBox="0 0 200 200">
<metadata>
<vectornator:setting key="DynamicGuides" value="1"/>
    <vectornator:setting key="Units" value="Points"/>
    <vectornator:setting key="RulersVisible" value="1"/>
    <vectornator:setting key="SnapToGuides" value="1"/>
    <vectornator:setting key="GridSpacing" value="36"/>
</metadata>
    <defs>
<linearGradient y1="39.019" id="LinearGradient" x1="31.6519" y2="167.05" x2="31.6519" gradientUnits="userSpaceOnUse"
                gradientTransform="matrix(1 0 0 1 0 0)">
<stop stop-color="#29cdff" offset="0"/>
    <stop stop-color="#0a60ff" offset="0.992672"/>
    <stop stop-color="#148eff" offset="1"/>
</linearGradient>
        <linearGradient y1="100" id="LinearGradient_2" x1="0.655561" y2="100" x2="210.595"
                        gradientUnits="userSpaceOnUse" gradientTransform="matrix(1 0 0 1 -10.9549 -1.56044)">
<stop stop-color="#fa8e7d" offset="0"/>
            <stop stop-color="#f74a5c" offset="1"/>
            <stop stop-color="#f51d2c" offset="1"/>
</linearGradient>
        <linearGradient y1="100" id="LinearGradient_3" x1="0.655561" y2="100" x2="210.595"
                        gradientUnits="userSpaceOnUse" gradientTransform="matrix(1 0 0 1 -10.9549 -1.56044)">
<stop stop-color="#fa8e7d" offset="0"/>
            <stop stop-color="#f74a5c" offset="1"/>
            <stop stop-color="#f51d2c" offset="1"/>
</linearGradient>
</defs>
    <g id="Layer 1" vectornator:layerName="Layer 1">
<path d="M31.5884+96.3783C36.6242+96.3783+40.5597+94.9712+43.395+92.1571C46.2303+89.343+47.6479+85.9893+47.6479+82.0961C47.6479+78.7106+46.2938+75.6003+43.5854+72.765C40.8771+69.9297+36.7511+68.5121+31.2075+68.5121C25.7062+68.5121+21.7284+69.9297+19.2739+72.765C16.8195+75.6003+15.5923+78.9222+15.5923+82.7308C15.5923+87.0049+17.1792+90.348+20.353+92.7601C23.5269+95.1722+27.272+96.3783+31.5884+96.3783ZM32.2866+141.383C37.5763+141.383+41.9668+139.955+45.458+137.099C48.9492+134.242+50.6948+129.979+50.6948+124.308C50.6948+118.426+48.8963+113.961+45.2993+110.914C41.7023+107.868+37.0897+106.344+31.4614+106.344C26.0024+106.344+21.5485+107.899+18.0996+111.01C14.6507+114.12+12.9263+118.426+12.9263+123.927C12.9263+128.667+14.5026+132.761+17.6553+136.21C20.8079+139.659+25.6851+141.383+32.2866+141.383ZM16.0366+100.758C12.8628+99.404+10.3872+97.8171+8.60986+95.9974C5.26676+92.612+3.59521+88.211+3.59521+82.7943C3.59521+76.0235+6.04964+70.2048+10.9585+65.3383C15.8674+60.4717+22.8286+58.0384+31.8423+58.0384C40.5597+58.0384+47.394+60.3342+52.3452+64.9257C57.2964+69.5171+59.772+74.8809+59.772+81.017C59.772+86.6875+58.3332+91.279+55.4556+94.7914C53.8475+96.7803+51.3507+98.7269+47.9653+100.631C51.7316+102.366+54.6938+104.355+56.8521+106.598C60.8722+110.83+62.8823+116.331+62.8823+123.102C62.8823+131.1+60.1951+137.881+54.8208+143.446C49.4465+149.011+41.8504+151.793+32.0327+151.793C23.1883+151.793+15.7087+149.392+9.59375+144.589C3.47884+139.786+0.421387+132.814+0.421387+123.673C0.421387+118.299+1.73324+113.654+4.35693+109.74C6.98063+105.826+10.8739+102.832+16.0366+100.758Z"
      opacity="1" fill="url(#LinearGradient)"/>
        <path d="M80.2905+55.9437L93.0493+55.9437L93.0493+149.191L80.2905+149.191L80.2905+55.9437Z" opacity="1"
              fill="url(#LinearGradient_2)"/>
        <path d="M198.865+148.937L192.517+156.618L178.108+145.636C174.638+147.54+170.882+149.064+166.841+150.206C162.799+151.349+158.388+151.92+153.606+151.92C139.133+151.92+127.792+147.181+119.583+137.702C112.346+128.476+108.728+116.924+108.728+103.043C108.728+90.4327+111.86+79.6416+118.123+70.6703C126.163+59.1599+138.054+53.4047+153.796+53.4047C170.258+53.4047+182.445+58.6944+190.359+69.2738C196.537+77.5258+199.626+88.084+199.626+100.949C199.626+106.958+198.886+112.734+197.405+118.278C195.162+126.741+191.375+133.639+186.042+138.971L198.865+148.937ZM155.129+140.621C157.753+140.621+160.208+140.442+162.493+140.082C164.778+139.722+166.767+139.013+168.459+137.955L158.24+129.957L164.587+122.15L176.775+131.608C180.626+127.207+183.239+122.277+184.614+116.818C185.99+111.359+186.677+106.133+186.677+101.139C186.677+90.1787+183.81+81.3555+178.076+74.6693C172.342+67.9831+164.503+64.64+154.558+64.64C144.486+64.64+136.51+67.8456+130.627+74.2567C124.745+80.6678+121.804+90.5384+121.804+103.869C121.804+115.083+124.629+124.012+130.278+130.656C135.928+137.3+144.211+140.621+155.129+140.621Z"
              opacity="1" fill="url(#LinearGradient_3)"/>
</g>
</svg>
